<?xml version="1.0" encoding="UTF-8"?>
<!DOCTYPE svg PUBLIC "-//W3C//DTD SVG 1.1//EN" "http://www.w3.org/Graphics/SVG/1.1/DTD/svg11.dtd">
<!-- Creator: CorelDRAW -->
<svg xmlns="http://www.w3.org/2000/svg" xml:space="preserve" width="228.6mm" height="228.6mm" version="1.1" style="shape-rendering:geometricPrecision; text-rendering:geometricPrecision; image-rendering:optimizeQuality; fill-rule:evenodd; clip-rule:evenodd"
viewBox="0 0 22860 22860"
 xmlns:xlink="http://www.w3.org/1999/xlink"
 xmlns:xodm="http://www.corel.com/coreldraw/odm/2003">
 <defs>
  <style type="text/css">
   <![CDATA[
    .fil4 {fill:#008CFF}
    .fil2 {fill:#008CFF}
    .fil5 {fill:#FCFBFB}
    .fil3 {fill:#FCFCFC}
    .fil1 {fill:#FDFDFD}
    .fil6 {fill:#FDFDFE}
    .fil7 {fill:#FEFEFE}
    .fil8 {fill:white}
    .fil9 {fill:#008CFF;fill-rule:nonzero}
    .fil0 {fill:url(#id0)}
   ]]>
  </style>
  <linearGradient id="id0" gradientUnits="userSpaceOnUse" x1="11739.28" y1="10176.21" x2="11736.7" y2="12359.91">
   <stop offset="0" style="stop-opacity:1; stop-color:#4D4D4D"/>
   <stop offset="0.470588" style="stop-opacity:1; stop-color:white"/>
   <stop offset="1" style="stop-opacity:1; stop-color:#4D4D4D"/>
  </linearGradient>
 </defs>
 <g id="Layer_x0020_1">
  <metadata id="CorelCorpID_0Corel-Layer"/>
  <g id="_2491116391520">
   <path class="fil0" d="M16522.33 12473.1l-7.36 -1701.89c197.37,6.49 483.86,52.64 560.68,177.22 85.32,138.38 54.13,528.43 53.5,712.36 -0.55,161.83 18.94,604.01 -20.48,728.07 -65.97,207.59 -367.79,115.77 -586.34,84.24zm-5819.6 -280.01c-91.88,50.94 -514.57,83.22 -650.59,37.42 -162.94,-54.86 -76.21,-548.78 -48.03,-590.66 53.09,-78.93 164.01,-75.76 282.45,-76.9 100.59,-0.97 253.54,-24.91 342.48,17.78 143.97,69.11 111.25,467.3 73.69,612.36zm-590.1 -1840.2c86.88,-20.08 227.31,-16.62 324.02,-19.05 124.63,-3.14 226.94,-4.98 254.93,97.88 47.47,174.45 33.43,526.17 -111.31,569.23 -70.3,20.92 -266.22,14.14 -349.95,15.2 -275.21,3.46 -270.48,-113.73 -270.94,-459.31 -0.21,-156.83 18.79,-172.86 153.25,-203.95zm-433.03 944.64c-172.02,89.49 -324.06,219.24 -401.51,383.69 -86.6,183.89 -115.22,459.04 -41.59,674.54 134.73,394.37 638.14,458.53 1124.94,448.06 498.47,-10.71 953.78,-89.63 1090.34,-483.94 73.58,-212.46 52.75,-495.65 -42.5,-678.3 -44.28,-84.92 -114.21,-171.6 -172.26,-220.78 -65.16,-55.2 -189.39,-111.84 -235.16,-152.65 155.97,-89.49 301.47,-168.97 383.2,-378.7 68,-174.47 83.05,-498.61 13,-676.15 -227.38,-576.31 -1345.95,-508.98 -1743.04,-344.01 -649.62,269.89 -557.8,1227.76 24.58,1428.24zm-2265.46 -1312.65c-35.35,123.62 -9.5,2570.66 -11.52,2920.78l716.72 -59.26 8.8 -1097.36 759.12 -55.11c10.35,-106.3 17.77,-473.49 -8.37,-566.36l-750.97 57 0.61 -670.77 904.54 -71.96 0.87 -587.54 -1619.8 130.58zm-1586.9 1386.66l-1.13 -1183.37 -689.7 109.6 -1.66 2885.98 684.63 -98.36c36.4,-229.53 -17.5,-836.85 18.4,-958.64 20.34,-69 83.99,-146.42 109.3,-225.48 54.11,49.13 231.13,451.42 278.33,548.92 89.93,185.73 193.06,372.57 286.32,553.86 119.78,-1.33 663.03,-54.28 741.64,-90.77 38.95,-35.21 -336.49,-656.3 -360.35,-700.71 -62.74,-116.76 -123.51,-236.8 -189.96,-352.31 -281.47,-489.29 -281.54,-317 126.16,-1114.27l365.76 -724.07c-160.66,-11.4 -433.38,38.47 -601.32,60.49 -149.03,19.54 -144.7,1.82 -203.31,131.69 -86.41,191.48 -526.7,1125.37 -563.11,1157.44zm5911.25 1349.72l709.24 5.41 1.93 -1087.73 739.49 21.41 2.67 -567.23 -736.86 -15.48 -8.4 -675.91 898.07 28.13 -5.35 -590.2 -1599.86 -50.8 -0.93 2932.4zm2333.67 74.19l919.68 81.41c67.43,-391.14 675.12,-2689.84 653.01,-2814.15l-674.53 -85.86c-78.59,337.12 -143.21,681.38 -210.87,1016.92 -33.51,166.19 -64.45,333.45 -98.48,498.92 -16.75,81.47 -32.43,166.72 -49.19,248.77 -9.32,45.59 -16.23,80.19 -24.06,125.29l-39.81 137.86c-26.87,-194.88 -393.23,-2059.79 -434.93,-2095.79 -76.79,-48.44 -571.48,-54.01 -707.8,-62.61l666.98 2949.24zm1747.22 169.12c354.41,56.14 1292.77,212.36 1578.97,106.28 481.26,-178.39 403.48,-838.42 399.91,-1391.37 -2.97,-458.65 48.31,-1008.47 -485.73,-1286.33 -231,-120.19 -1179.41,-293.77 -1487.98,-303.65l-5.17 2875.07z"/>
   <path class="fil1" d="M18401.28 8987.12c41.05,-78.76 240.04,-254.24 317.25,-293.49 32.35,75.74 152.09,631.87 137.35,713.99l-500.72 -2.38c-30.77,-81.03 -18.9,-194.87 -9.54,-283.49 112.58,42.7 278.73,259.41 405.72,236.12 4.8,-90.21 -58.37,-106.29 -162.82,-202.56l-187.24 -168.19zm-710.89 395.41c18.11,-135.7 100.58,-589.63 149.83,-691.07 88.49,26.9 295.29,219.12 348.11,292.89 -57.79,58.89 -129.83,107.8 -203.09,166.46 -65.21,52.21 -168.01,90.95 -180.28,190.89 121.92,35.78 326.82,-186.87 442.94,-238.38l-2.04 293.93c-154.93,25.43 -392.06,-8.92 -555.47,-14.72zm646.69 -761.77l254.15 4.77c-42.8,77.71 -180.85,188.7 -255.72,224.27l1.57 -229.04zm-96.81 226.17c-41.52,-15.39 -239.85,-169.46 -263.8,-225.7 295.88,5.71 274.91,-42.97 263.8,225.7zm104.35 -607.68c9.29,-39.05 154.46,-339.82 187.38,-370.48 49.1,49.61 134.33,592.97 137.26,639.73l-336.17 -0.4 5.79 -126.23 199.44 49.11c-38.28,-134.36 -122.54,-97.63 -193.7,-191.73zm-469.97 262.49c7.5,-91.34 114.57,-598.76 146.46,-649.84 59.39,89.64 159.97,265.51 179.97,387.35 -73.84,81.36 -156.02,81.46 -212.36,190.79 111.64,4.83 155.91,-32.07 249,-62.6l4.12 146.86 -367.19 -12.56zm458.16 -706.32l112.72 6.81c-1.69,38.45 -87.27,199.55 -112.79,245.48l0.07 -252.29zm-105.15 255.6c-27.72,-40.3 -38.38,-79.13 -66.15,-133.22 -30.21,-58.87 -50.04,-58.62 -58.19,-122.83l128.79 -0.6 -4.45 256.65zm101.21 -469.18c67.74,24.4 80.12,45.99 112.19,96.49 -49.41,22.05 -44.43,15.91 -111.73,12.45l-0.46 -108.94zm-224.04 108.15c13.47,-33.54 20.46,-37.42 52.93,-68.33 37.83,-36 24.94,-26.05 75.4,-47.75l-1.33 119.22 -127 -3.14zm332.63 -284.89l49.81 194.98c-52.92,-71.97 -83.09,-62.65 -124.36,-153.63l74.55 -41.35zm-314.13 -6.04l69.08 54.91c-24.83,66.91 -48.07,84.05 -123.64,109.65l54.56 -164.56zm42.57 -113.36c70.78,-46.95 52.82,-15.93 67.32,18.7 -15.55,9.68 -4.87,57.97 -67.32,-18.7zm164.68 35.78c10.67,-73.45 -17.79,-55.37 71.79,-57.87 -26.71,52.98 6.19,35.6 -71.79,57.87zm-148.45 -825.64c-9.97,198.05 -123.55,573.43 -167.69,776.84 -65.17,300.26 -519.53,2213.19 -522.63,2323.67 193.93,28.18 98.17,-19.61 211.64,-5.59 101.8,12.57 80.68,37.84 220.08,20.47l-67.72 -77.78 381.85 -4.33c12.93,58.66 -7.41,109.43 63.16,85.69 116.41,-39.15 -134.69,-109.96 429.18,-74.69 -31.75,136.04 -186.49,21.04 -184.15,291.55 141.07,-67.52 222.03,-179.87 360.09,-227.68 37.22,96.26 169.78,713.96 172.74,818.46 -134.62,-53.38 -413.44,-292.61 -541.51,-334.63 -3.78,179.75 15.57,137.09 147.35,224.12 34.49,22.78 197.86,130.61 214.27,162.09l-360.69 5.82 1.47 105.77c178.9,33.56 255.92,-22.15 340.57,54.18 -103.87,35.02 -238.6,149.17 -346.25,198.98l-0.97 142.84c207.42,-81.61 378.73,-251.31 597.38,-340.25l199.16 946.1c-183.29,-60.55 -556.93,-362.12 -794.86,-445.54l-6.85 132.04c122.34,65.63 523.59,300.1 597.55,380.56l-585.68 17.42 1065.04 238.85 -1235.17 -5412.98c198.9,-95.51 155.97,-395.73 -81.8,-409.41 -247.18,-14.23 -309.56,291.02 -105.56,407.43z"/>
   <path class="fil1" d="M4708.29 8968.43c47.77,-58.2 248.66,-235.03 324.52,-276.95 56.27,87.28 134.38,561.89 142.66,707.39l-514.61 -7.61 -7.52 -278.41c140.97,67.56 280.65,255.76 409.17,223.41 -25.65,-132.93 -249.32,-209.56 -354.22,-367.83zm-547.08 -290.7c81.8,33.85 303.36,239.51 333.56,313.29 -74.96,39.18 -139.17,100.46 -213.4,160.68 -121.82,98.8 -164.07,110.63 -158.19,184.05 122.78,28.54 343.11,-206.81 432.69,-242.5l-3.45 292.36c-97.01,18.44 -428.36,-4.18 -544.31,-17.45l153.1 -690.43zm500.64 -59.95l237.52 3.84c-11.81,61.74 -36.79,65.33 -109.35,123.15 -30.05,23.95 -37.82,30.29 -62.55,48.45 -8.31,6.1 -25.44,18.81 -33.42,24.28 -26.87,18.45 -6.85,6.14 -43.34,25.45l11.14 -225.17zm-110.16 225.78c-62.26,-16.31 -204.8,-165.69 -255.9,-224.57l257.92 7.06 4.88 99.36 -6.9 118.15zm117.52 -578.51c15.23,-93.21 133.86,-328.97 174.21,-417.24 37.46,40.6 43.51,98.17 54.35,152.11 22.6,112.49 97.16,431.96 88,510.14l-333.18 -8.93 -1.23 -119.95 219.31 34.6c-48.62,-88.81 -109.17,-118.58 -201.46,-150.73zm-477.83 235.85c9.42,-107.95 109.42,-551.27 149.65,-633.31l17.83 18.59c2.02,2.46 6.19,7.12 8.33,9.95l157.53 343.12c-70.46,84.51 -165.26,85.71 -199.6,183.36 110.52,10.74 129.54,-28.05 224.69,-55.27l3.07 146.38 -361.5 -12.82zm464.66 -706.48l115.65 -0.29 -105.27 216.29c-1.5,-3.17 -7.05,8.21 -13.75,12.33l3.37 -228.33zm-114.87 270.08l-109.75 -272.72 126.6 -0.39 -16.85 273.11zm104.65 -476.79l105.13 97.52 -101.62 -0.57 -3.51 -96.95zm-220.77 97.64c6.1,-49.85 84.81,-104.4 128.72,-125.16l-4.4 125.26 -124.32 -0.1zm324.68 -280.81c27.05,53.84 53.87,124.46 56.66,195.21 -40.65,-42.52 -102.29,-85.38 -128.34,-151.5l71.68 -43.71zm-315.18 -7.81l75.88 57.24c-15.1,24.85 -24.16,39.86 -46.98,65.76l-77.46 55.68 48.56 -178.68zm221.97 -63.44c-39.4,-66.52 -7.17,-59.59 46.11,-65.44 -11.34,64.78 18.58,35.83 -46.11,65.44zm-106.37 -7.49c-69.76,-26.2 -43.76,-5.35 -71.73,-54.75 92.48,-9.07 60.02,-23.7 71.73,54.75zm-57.57 -806.67c-27.36,215.71 -93.14,469.38 -143.71,681.63 -53.87,226.1 -99.02,444.57 -152.83,669.6 -106.89,447.01 -204.65,891.3 -308.13,1337.03 -101.64,437.77 -185.36,905.06 -303.6,1342.83 -56.54,209.35 -98.71,443.17 -155.26,667.26 -52.46,207.9 -118.86,491.64 -150.49,693.25l1053.3 -229.87c-188.73,-27.12 -338.83,-62.55 -553.26,-78.79 83.18,-84.02 430.28,-258.77 569.46,-364.19l3.82 -128.7c-107.31,18.03 -589.79,367.85 -778.73,426.83l184.84 -940.15c133.65,54.83 524.36,335.21 589.7,344.07l6.07 -132.95c-58.33,-45.21 -113.16,-74.08 -170.74,-110.19l-168.08 -126.88 331.67 -3.55 5.24 -109.1 -366.91 -28.31c45.29,-50.95 296.46,-203.36 360.33,-237.58l-1.53 -135.91c-185.12,87.49 -344.42,247.52 -534.93,320.38 16.81,-137.47 128.73,-745.93 176.97,-821.45 136.36,56.59 225.03,184.86 358.21,244.08 4.91,-244.68 -88.75,-133.71 -179.42,-290.92 96.65,-1.49 232.95,-8.37 326.47,2.88 96.7,11.63 51.94,26.69 113.89,29.99 79.34,4.23 6.53,-25.87 147.43,-24.97l613.76 -2.79 -678.65 -2992.8c58.44,-59.33 152.23,-113.6 122.77,-259.88 -43.28,-214.9 -377.55,-246.8 -427.94,-15.72 -31.35,143.77 56.5,212.08 110.28,274.87z"/>
   <path class="fil2" d="M5376.2 15306.69c224.95,200.26 5845.52,2328.18 6070.91,2334.14 183.36,4.85 3945.42,-1430.78 4599.54,-1697.08 354.09,-144.16 1172.13,-469.58 1472.66,-632.38 -105.54,-11.77 -372.37,-50.85 -462.55,-41.92 -54.3,5.38 -309.9,116.59 -378.33,147.12 -701.51,312.89 -1486.53,614.79 -2202.95,900.36 -305.82,121.91 -2918.9,1103.71 -3028.84,1100.63 -248.84,-6.95 -4002.35,-1477.51 -4496.36,-1691.83l-1095.63 -456.43c-73.1,-7.2 -424.92,17.73 -478.45,37.39z"/>
   <path class="fil3" d="M4625.54 9925.93c-24.75,147.87 -28.63,3342.08 -4.11,3508.21l123.32 -22.19 3.5 -3359.1c112,-48.02 1722.39,-255.42 1976.19,-289.11 683.05,-90.67 1364.99,-176.42 2059.78,-226.43 1931.11,-138.99 2445.86,-143.23 4382.43,-61.79 1422.96,59.84 3114.52,342.08 4497.18,604.53 229.73,43.61 291.56,18.96 410.74,168.3 141.07,176.78 87.35,774.85 86.89,1057.19 -0.35,217.3 11.37,1546.68 -7.79,1696.1 -24.94,194.47 -114.32,227.21 -191.65,315.36 -34.65,39.5 -11.21,4.2 -37.52,52.44 119.26,19.69 140.54,51.52 225.6,-34.22 46.89,-47.27 94.11,-97.24 110.07,-187.26 18.51,-104.45 7.99,-2629.37 4.22,-2908.21 -4.12,-303.36 7.92,-247.66 -290.02,-285.82 -167.41,-21.44 -351.68,-52.01 -515.19,-79.27 -674.86,-112.52 -1348.45,-213.77 -2023.37,-314.2 -1330.54,-197.97 -3063.26,-281.19 -4419.98,-263.46 -1708.13,22.34 -2687.2,134.9 -4343.89,336.86 -672.04,81.92 -1387.23,172.68 -2046.4,292.07z"/>
   <path class="fil1" d="M3724.96 14350.35c-6.39,-130.31 -78.49,-205.68 -95.16,-328.92 290.56,-64.71 577.91,-140.08 870.09,-201.83 834.44,-176.36 1990.19,-352.9 2830.94,-427.07 2931.89,-258.64 5290.69,-303.05 8241.08,15.25 648.58,69.97 1281.54,148 1912.95,251.66 287.52,47.2 1625.58,279.77 1786.48,375.85 -30.58,91.62 -86.62,198.81 -99.18,313.89 37.6,-17.48 146.75,-114.83 181.92,-146.34l328.08 -363.46c49.74,-69.48 101.98,-131.72 149.34,-206.09 197.31,-309.77 224.49,-367.04 347.52,-699.42 22.11,-59.74 65.25,-164.75 62.58,-225.05 -1.53,-34.59 -0.14,-21.04 -8.18,-40.94 -129.5,-21.74 -52.87,17.94 -178.4,291.78 -174.52,380.69 -352.88,645.76 -618.29,946.35 -276.79,-43.65 -600.38,-149.46 -886.76,-209.06 -308.77,-64.27 -611.03,-113.61 -929.6,-172.38 -1703.38,-314.22 -4457.27,-442.56 -6174.51,-448.96 -1755.33,-6.54 -4431.82,99.65 -6169.25,436.58 -280.43,54.38 -1664.27,316.34 -1789.81,401.83 -184.43,-140.74 -504,-657.82 -616.6,-894.62 -39.62,-83.32 -114.77,-316.06 -155.81,-368.65l-66.33 10.37c-22.54,265.02 439.93,1065.13 711.59,1346.17 82.25,85.08 280,299.86 365.31,343.06z"/>
   <path class="fil4" d="M6519.6 15223.52c172.58,89.06 388.45,173.71 571.69,250.18 200.4,83.61 394.51,164.06 597,243.94 790.88,311.97 1647.49,637.4 2448.95,916.35 202.03,70.31 1143.15,406.46 1275.59,428.29 220.98,36.44 3630.58,-1270.07 4323.66,-1559.53 177.51,-74.13 441.97,-205.87 611.86,-252.79 -4.3,-2.93 -11.34,-11.53 -13.78,-7.31l-327.18 -44.63c-153.73,-12.51 -745.26,260.97 -906.64,323.2 -438.19,168.96 -3428.84,1277.75 -3653.97,1279.53 -142.25,1.13 -2165.32,-717.59 -2446.69,-824.92l-1781.04 -686.75c-310.86,-126.68 -290.13,-124.25 -699.45,-65.56z"/>
   <path class="fil2" d="M10854.3 15946.71c-142.08,-91.78 -205.45,-464.4 -287.2,-597.85 -65.65,45.87 -233.3,272.27 -273.16,338.48 -447.29,9.28 -2311.57,-572.54 -2502.17,-561.18 613.31,320.52 1733.39,688.88 2494.88,810.86 57.12,-41.87 165.8,-184.23 197.74,-249.36 160.56,165.18 -123.69,280.07 433.16,638.92 53.12,-59.32 86.05,-110.24 137.57,-176.6l390.74 -586.85c73.91,90.67 169.53,285.64 244.09,396.74 67.33,100.32 200.9,287.6 279.43,361.96 517.48,-291.03 281.42,-465.36 434.7,-626.94 24.21,42.37 154.18,212.05 198.43,239.03 471.95,-103.53 876.38,-187.94 1317.36,-340.87 634.31,-219.97 613.97,-206.31 1179.94,-464.4 -125.63,-3.63 -473.18,104.8 -607.11,141.24 -321.54,87.49 -1700.57,420.03 -1887.63,411.93l-135.86 -164.61c-48.2,-63.41 -98.05,-118.15 -139.42,-175.42 -3.41,3.7 -8.01,4.77 -9.34,11.86l-58.6 134.32c-80.23,241.36 -179.2,370.77 -210.35,461.95l-97.38 -104.68c-26.62,-38.36 -51.17,-69.79 -78.79,-107.82 -242.97,-334.64 -227.86,-408.15 -371.31,-763.76l-115.09 0.18c-185.13,450.42 -104.42,337.01 -371.08,746.23 -55.93,85.84 -119.65,150.29 -163.55,226.64z"/>
   <path class="fil5" d="M4187.08 15231.51c341.51,-10.29 1342.2,-141.17 1742.56,-188.4 585.74,-69.1 1177.69,-95.62 1767.39,-155.27 909.8,-92.04 2809.77,-135.66 3748.83,-129.26 1915.03,13.06 3606.22,116.29 5492.55,296.89 555.56,53.19 1216.49,156.92 1763.12,174.55 -171.28,-73.05 -1410.47,-223.54 -1683.96,-259.99 -2609,-347.71 -6767.35,-408.26 -9352.46,-195.74 -606.08,49.83 -1190.71,114.79 -1785.39,179.67 -251.77,27.46 -1561.03,213.92 -1692.64,277.55z"/>
   <path class="fil6" d="M18515.08 12195.3c752.08,116.53 1134.74,159.15 1880.93,313.12 168.34,34.74 449.96,117.18 606.05,124.78 -246.93,-239.72 -2005.56,-721.06 -2489.98,-720.45l3 282.55z"/>
   <path class="fil1" d="M1857.94 12647.68c196.83,-19.97 459.16,-106.22 667.97,-147.83 522.9,-104.2 852.87,-172.7 1396.26,-250.3 413.04,-58.98 465.39,-5.66 468.5,-138.15 1.32,-56.12 -1.5,-139.56 -5.76,-195.59 -157.61,-23.51 -1167.42,213.67 -1352.2,269.15 -367.94,110.47 -898.2,267.27 -1174.77,462.72z"/>
   <path class="fil1" d="M5677.29 5518.4c28.11,65.09 690.22,676.04 110.64,1381.92 -55.87,68.06 -102.19,74.98 -141.59,164.88l93.67 65.73c642.4,-424.52 532.19,-1355.86 3.29,-1661.11l-66.01 48.58z"/>
   <path class="fil1" d="M3443.57 7117.52l80.71 -52.31c-42.94,-119.72 -340.87,-291.48 -355.54,-753.88 -11.35,-357.98 176.68,-614.54 348.05,-761.41 -28.48,-50.74 -31.46,-54.34 -95.83,-78.95 -179.97,208.12 -429.33,389.09 -425.69,823.93 3.13,374.17 237.26,721.66 448.3,822.62z"/>
   <path class="fil1" d="M19356.74 5526.74c45.99,112.2 346.52,282.43 342.29,768.14 -1.58,180.88 -45.82,313.42 -120.93,447.86 -31.71,56.77 -71.83,122.27 -111.66,168.89 -53.66,62.8 -90.79,66.39 -133.36,151.03 33.76,22.85 55.59,41.19 91.25,64.54 200.54,-111.54 446.22,-465.23 444.34,-832.48 -1.86,-364.37 -248.8,-748.33 -460.39,-823.07l-51.54 55.09z"/>
   <path class="fil1" d="M17129.73 7117.42c36.83,-34 47.81,-38.59 74.84,-74.78 -159.14,-174.78 -353.46,-367.76 -356.34,-747.98 -3.69,-485.66 307.08,-675.37 341.12,-773.92l-57.36 -45.83c-214.48,75.42 -452.82,486.34 -455.51,819.63 -1.43,176.65 57.7,384.46 133.28,507.19 55.16,89.56 223.54,284.15 319.97,315.69z"/>
   <path class="fil1" d="M11080.51 5560.02c92.02,24.49 586.01,19.08 698.69,7.67l5.2 -340.97c-126.2,-6.86 -606.51,-16.99 -701.98,11.02l-1.91 322.28z"/>
   <polygon class="fil4" points="14711.23,7070.96 15401.42,7071.37 15401.97,6715.72 14714.5,6718.83 "/>
   <path class="fil2" d="M7435.57 7553.33l689.97 7.9c4.87,-98 20.86,-259.39 -10.59,-327.97 -74.21,-39.95 -564.29,-32.22 -675.47,-9.35l-3.91 329.42z"/>
   <polygon class="fil2" points="6522.37,8545.98 7206.83,8541.29 7213,8197.14 6523.58,8195 "/>
   <polygon class="fil4" points="15649.23,8054.09 16334.15,8057.46 16336.82,7708.23 15646.57,7708.89 "/>
   <polygon class="fil7" points="11093.07,6086.39 11779.59,6092.04 11783.15,5745.1 11092.03,5744.92 "/>
   <polygon class="fil4" points="15648.84,8550.34 16319.36,8549.81 16331.87,8200.92 15648.02,8201.57 "/>
   <polygon class="fil2" points="8359.95,8544.86 8622.63,8546.47 9033.37,8544.12 9035.67,8198.69 8697.42,8195.34 8641.32,8195.75 8360.64,8196.2 "/>
   <polygon class="fil1" points="12004.06,6577.64 12700.71,6582.07 12702.72,6242.89 12009.67,6240.05 "/>
   <polygon class="fil2" points="7448.53,8537.64 7799.96,8544.78 8122.69,8545 8125.14,8195.59 7575.6,8194.83 7451.02,8199.52 "/>
   <path class="fil1" d="M12007.31 7069.23l666.42 1.59c28.94,-90.45 24.53,-247.82 9.25,-343.16l-674.13 -1.47 -1.54 343.04z"/>
   <polygon class="fil4" points="14724.39,7555.3 15405.97,7563 15410.66,7216.05 14729.12,7216.1 "/>
   <polygon class="fil2" points="8354.56,6580.23 9042.82,6587 9048.66,6246.74 8355.19,6243.73 "/>
   <path class="fil4" d="M14742.82 8547.82l654.5 -1.08 6.1 -341.68 -673.45 -8.68c-0.13,110.92 -22.57,248.93 12.85,351.44z"/>
   <polygon class="fil1" points="11087.12,7068.67 11762.55,7066.42 11764.99,6722.92 11089.51,6721.84 "/>
   <polygon class="fil2" points="7442.39,7865.29 7444.36,8050.15 8119.1,8049.99 8124.46,7705.78 7445.44,7707.05 "/>
   <polygon class="fil4" points="13817.51,8550.92 14486.64,8549.94 14495.05,8205.89 13820.65,8202.43 "/>
   <polygon class="fil2" points="6530.92,9028.96 7210.51,9036.12 7205.19,8692.24 6530.84,8685.89 "/>
   <path class="fil4" d="M14730.42 9028.16l668 9.27 3.39 -342.58c-103.74,-17.49 -586.63,-22.36 -668.97,8.01l-2.42 325.3z"/>
   <polygon class="fil2" points="8358.56,7561.24 9030.94,7561.58 9035.76,7214.77 8366.09,7216.08 "/>
   <polygon class="fil4" points="14730.2,8053.24 15406.64,8053.28 15405.04,7708.93 14741.93,7704.46 "/>
   <polygon class="fil1" points="12002.93,8542.78 12677.14,8545.04 12677.09,8202.18 12003.67,8196.82 "/>
   <polygon class="fil6" points="11090.86,6576.18 11766.43,6578.89 11770.39,6234.72 11095.15,6234.47 "/>
   <polygon class="fil1" points="11084.28,9030.55 11759.7,9027.52 11759.76,8688.09 11086.04,8684.16 "/>
   <polygon class="fil1" points="11082.79,8539.31 11755.96,8538.2 11759.93,8194.18 11096.13,8191.89 "/>
   <polygon class="fil2" points="8361.94,8048.56 9032.59,8052.21 9036.18,7708.55 8361.34,7705.84 "/>
   <polygon class="fil1" points="12006.54,9032.98 12669.01,9034.43 12676.02,8688.85 12005.64,8686.87 "/>
   <polygon class="fil2" points="8360.46,9034.59 9026.05,9035.32 9033.39,8692.43 8364.87,8687.12 "/>
   <polygon class="fil1" points="10173.13,7073.32 10844.84,7075.45 10851.92,6731.45 10180.03,6731.81 "/>
   <polygon class="fil2" points="8362.72,7071.95 9039.38,7073.47 9041.82,6737.05 8365.36,6727.85 "/>
   <polygon class="fil1" points="11090.72,7557.83 11757.06,7561.29 11765.54,7217.47 11096.12,7214.73 "/>
   <polygon class="fil2" points="7452.12,9030.61 8112.83,9036.41 8121.56,8690.21 7452.93,8687.65 "/>
   <polygon class="fil1" points="12008.02,7558.3 12675.45,7562.28 12679.6,7217.84 12014.05,7215.89 "/>
   <polygon class="fil4" points="15646.95,9039.14 16315.3,9038.53 16317.09,8698.99 15653.75,8692.34 "/>
   <polygon class="fil6" points="10175.19,8295.34 10177.64,8539.62 10840.46,8542.37 10844.97,8201.47 10176.23,8198.02 "/>
   <polygon class="fil6" points="11089.33,8045.9 11758.25,8047.77 11763.05,7706.15 11101.27,7704.77 "/>
   <polygon class="fil6" points="12007.64,8046.75 12675.01,8050.63 12678.01,7713.06 12004.06,7707.22 "/>
   <polygon class="fil1" points="10177.59,7557.08 10841.97,7562.33 10847.23,7218.44 10182.47,7217.86 "/>
   <polygon class="fil1" points="12912.87,8546.21 13561.66,8545.05 13565.21,8195.86 12914.41,8197.36 "/>
   <polygon class="fil4" points="13822.71,9034.94 14484.14,9038.36 14487.76,8696.39 13827.1,8691.42 "/>
   <polygon class="fil1" points="10179.11,9031.66 10835,9035.31 10842.49,8693.06 10179.21,8687.75 "/>
   <path class="fil1" d="M12919.61 7564.37l638.96 -0.64c13.76,-99.07 21.37,-250.81 -6.08,-343.92l-622.61 0.19c-31.93,89.26 -22.4,247.92 -10.27,344.37z"/>
   <polygon class="fil6" points="12917.87,9035.58 13552.86,9035.85 13564.55,8687.08 12916.83,8689.23 "/>
   <polygon class="fil7" points="12917.14,8052.55 13563.65,8053.4 13566.21,7709.04 12916.72,7709 "/>
   <path class="fil4" d="M3756.93 13618.04c-75.59,-147.69 -291.38,-292.62 -496.75,-726.42 -29.42,-62.13 -101.31,-246.28 -134.46,-287.36 -113.54,12.21 -157.54,3.86 -156.2,57.02 2.08,82.75 202.81,456.61 248.27,534.05 58.54,99.71 144.83,224 209.81,313.63 128.23,176.88 96.5,153.97 329.33,109.08z"/>
   <path class="fil4" d="M19129.47 13600.05l77.42 43.02c9.45,3.41 79.53,22.47 85.31,22.99 63.83,5.77 94.18,-52.1 124.27,-92.43 198.69,-266.36 439.24,-598.9 511.14,-949.09l-161.6 -17.4c-66.06,93.57 -200.44,592.33 -636.54,992.91z"/>
   <polygon class="fil2" points="9275.51,8548.85 9918.28,8547.53 9922.51,8210.52 9277.21,8198.46 "/>
   <polygon class="fil6" points="10180.16,7846.61 10182.2,8043.46 10840.89,8048.06 10846.08,7712.42 10180.59,7712.37 "/>
   <polygon class="fil2" points="9277.98,9035.58 9917.79,9042.41 9916.85,8696.09 9283,8692.69 "/>
   <path class="fil4" d="M16522.32 9050.78l615.84 2.78 4.54 -339.73 -629.31 -5.62c-9.15,105.86 -25.1,245.15 8.93,342.57z"/>
   <polygon class="fil2" points="5694.72,9048.81 6336.15,9046.19 6337.63,8711.52 5702.74,8708.24 "/>
   <polygon class="fil2" points="9277.98,8060.42 9918.47,8060.88 9928.13,7740.42 9281.31,7735.96 "/>
   <path class="fil4" d="M17142.28 9544.92l1.47 -345.75 -628.44 -5.76c-13.64,274.44 -46.77,260.46 186.63,295.64 131.62,19.85 312.23,62.17 440.34,55.87z"/>
   <polygon class="fil2" points="5698.9,9499.44 6329.42,9410.66 6334.48,9198.78 5700.2,9191.53 "/>
   <path class="fil1" d="M3817.51 6818.97c34.04,-25.19 39.66,-30.56 66.78,-60.68 -75.02,-112.81 -178.01,-272.61 -182.22,-463.26 -5.57,-252.43 102.63,-342.14 187.73,-486.39l-68.9 -74.75c-484.72,420.39 -212.08,981.66 -3.39,1085.08z"/>
   <path class="fil1" d="M17510.22 6822.34c123.99,-160.07 -89.54,-111.08 -125.84,-489.46 -29.57,-308.27 155.35,-428.28 176.78,-546.02l-56.67 -48.44c-335.3,171.44 -377.64,899.12 5.73,1083.92z"/>
   <path class="fil1" d="M5369.36 6826.33c249.03,-150.23 343.27,-563.02 194.99,-857.36 -28.31,-56.2 -126.2,-202.03 -182.56,-210.92 -244.72,-38.61 313.67,316.84 20.19,849.77 -66.84,121.38 -156.53,140.12 -32.62,218.51z"/>
   <path class="fil3" d="M18989.64 5797.77c71.14,153.46 170.6,210.59 183.35,459.11 8.79,171.31 -89.36,423.06 -197.7,478.41l75.96 98.14c423.64,-385.42 288.54,-901.3 4.27,-1085.45 -35.77,19.73 -7.69,1.11 -36.81,23.81 -15.71,12.25 -10.23,9.74 -29.07,25.98z"/>
   <polygon class="fil4" points="15650.82,9324.87 16314.42,9421.53 16318.14,9187.27 15652.41,9189.44 "/>
   <polygon class="fil2" points="6528.09,9376.53 7200.47,9291.87 7204.9,9189.78 6530.33,9183.8 "/>
   <path class="fil5" d="M18602.59 13512.08c191.72,29.31 170.48,44.57 435.8,-316.45 70.27,-95.61 235.08,-368 254.93,-516.53 -169.19,266.4 -287.09,421.39 -491.91,634.77 -62.56,65.17 -162.19,131.83 -198.82,198.21z"/>
   <path class="fil3" d="M4303.83 13490.7c-100.02,-64.28 -308.55,-272.58 -390.8,-373.37 -142.61,-174.74 -263.47,-377.19 -317.57,-443.1 18.61,138.37 196.15,427.61 266.87,530.8 28.14,41.06 238.14,303.45 281.15,317.6 48.43,15.93 122.02,-4.42 160.35,-31.93z"/>
   <path class="fil5" d="M18711.05 6081.08c22.41,235.43 100.41,152.01 -24.73,413.92l108.81 6.71c35.71,-52.27 59.15,-139 59.82,-206.8 0.92,-93.89 -26.77,-202.88 -102.19,-261.46l-41.71 47.63z"/>
   <path class="fil5" d="M17815.11 6549.39c41.88,-42.86 56.89,-31.52 31.02,-107.74 -110.26,-324.91 84.45,-308.58 -43.31,-388.27 -138.86,124.35 -116.85,389.29 12.29,496.01z"/>
   <path class="fil5" d="M5070.21 6537.76c168.17,-141.04 80.25,-497.15 1.54,-489.72 -84.56,7.98 2.25,158.94 -0.06,246.8 -4.23,160.31 -112.96,161.92 -1.48,242.92z"/>
   <path class="fil5" d="M4135.36 6541.62c122.57,-94.8 -77.16,-103.1 12.4,-386.75 23.56,-74.62 28.25,-50.92 -5.06,-109.59 -152.02,65.87 -151.45,381.52 -7.34,496.34z"/>
   <path class="fil4" d="M14739.31 9211.49l662.45 81.08 0.41 -95.03 -592.43 -12.13c-92.65,8.73 -47.61,5.77 -70.43,26.08z"/>
   <path class="fil8" d="M7160.21 12860.49l-606.42 64.65c-5.14,-22.05 -147.99,-283.52 -172.55,-332.63l-56.55 -113.19c-58.42,-116.8 -106.36,-228.38 -161.66,-343.52 -44.56,-92.8 -118.86,-255.03 -192.61,-316.63 -27.69,-23.14 -43.13,-44.95 -63.49,-49.68 -0.89,40.08 -42.32,134.73 -64.73,177.75 -77.96,149.69 -92.94,149.07 -92.94,347.54 0,186.13 13.32,415.54 8.22,586.05 -0.61,20.34 -4.07,22.37 -4.34,44.16 -0.19,16.14 0.53,32.66 0.33,48.81 -0.27,22.02 -4.21,24.11 -4.21,44.28 -44.24,10.31 -391.19,56.94 -469.66,68 -21.45,3.02 -47.5,8.78 -68.03,8.78l0 -2731.56c63.87,-14.88 315.17,-49.74 400.83,-64.06l136.86 -20.8 0 1074.85c0,65.56 4.05,116.56 4.05,181.83 20.38,-13.64 27.57,-23.22 46.81,-38.07 16.06,-12.41 76.26,-67.23 86.63,-83.12 41.21,-63.18 60.77,-98.14 94.36,-164.3 10.39,-20.45 18,-36.16 28.24,-56.63l471.05 -991.95c20.99,-40.79 21.56,-32.37 125.95,-43.83 122.16,-13.41 349.9,-56.57 460.88,-56.57 -7.49,32.1 -294.95,585.23 -345,685.58l-66.01 127.98c-8.51,17.18 -14.65,25.25 -22.98,41.67 -8.08,15.91 -13.59,27.24 -21.49,43.18l-67.41 126.58c-82.89,167.3 -164.74,300.76 -72.76,483.57 41.99,83.45 93.73,166.21 141.14,246.83 57.57,97.89 153.75,272.07 205.2,376.78 30.69,62.44 124.3,213.06 165.65,287l114.66 208.67c14.25,28.72 60.4,113.11 61.98,132zm-2025.46 323.26l0 -2769.73c0.51,-71 1.15,-112.12 1.96,-113.42 5.96,-9.56 16.83,-6.46 45.41,-11.19l643.96 -103.91c0,395.82 4.04,783.62 4.04,1175.87l61.99 -107.76c19.62,-39.33 36.93,-73.82 56.6,-113.14 36.55,-73.06 139.44,-278.49 166.12,-343.11l216.59 -458.32c143.9,-283.99 32.94,-224.31 401.46,-277.59l224.81 -29.87c92.69,-8.95 138.6,-11.75 238.91,-11.75l-183.34 362.26c-69.77,137.4 -153.61,318.87 -227.74,451.23 -60.39,107.85 -125.4,243.29 -186.43,355.13 -8.75,16.03 -14.12,29.79 -22.39,46.31 -39.65,79.12 -81.31,167.56 -65.15,257.7 15.07,84.1 136.2,272.9 185.46,356.12 18.15,30.68 32.13,56.52 49.55,87.86 41.02,73.83 105.12,202.88 141.07,263.07l149.6 258.6c51.37,86.78 178.59,319.67 208.42,401.84 2.66,7.32 5.59,15.78 7.96,24.83 2.54,9.65 3.66,16.28 -0.41,24.2 -5.3,13.13 4.69,4.15 -17.24,11.06l-62.5 14.31c-27.28,4.62 -59.72,10.58 -90.29,14.81 -179.03,24.79 -346.42,43.33 -525.36,52.74 -18.8,0.99 -24.9,4.06 -48.49,4.06l-70.44 -139.72c-14.43,-24.08 -22.64,-44.27 -36.01,-69.07 -7.07,-13.13 -12.39,-20.48 -18.91,-33.63 -5.37,-10.81 -10.76,-21.54 -16.14,-32.36l-107.81 -207.42c-11.64,-23.26 -23.7,-45.06 -33.64,-67.4l-66.04 -144.11c-33.65,-67.19 -103.79,-229.06 -135.37,-280.89l-37.17 -67.92c-5.81,-10.75 -12.51,-22.53 -19.58,-32.96 -14.85,-21.9 -13.53,-20.58 -24.89,-23.61 -3.4,40.78 -88.93,161.26 -105.28,226.12 -16.15,64.06 -12.21,239.02 -12.1,315.49 0.04,27.83 4.22,47.96 4.18,80.67l-2.91 481.98c-3.2,24.52 -5.17,51.1 -5.17,75.65 -24.2,0.54 -62.93,8.77 -88.72,12.35l-598.57 84.62z"/>
   <path class="fil8" d="M13503.4 9926.89c107.54,0 394.48,17.55 501.57,32.07 52.7,7.15 48.8,1.34 60.4,48.74 113.18,462.55 204.63,951.97 298.82,1422.7 39.56,197.7 108.05,544.78 129.37,735.41 5.24,46.8 24.59,157.76 24.59,193.63l84.4 -271.23c35.85,-115.68 49.93,-163.98 72.94,-278.66 39.14,-195.16 76.17,-386.72 115.9,-583.2 39.9,-197.3 75.96,-387.74 115.21,-583.9l120.95 -582.21 533.65 68.69 -109.93 508.37c-123.3,496.03 -239.05,992.71 -364.71,1490.18 -14.41,57.03 -27.61,109.31 -40.4,165.7 -23.06,101.69 -59.47,238.17 -78.96,333.23 -6.01,29.31 -11.01,53.55 -17.45,83.59 -3.07,14.36 -14.21,75.39 -19.23,85.84 -13.73,-0.3 -30.04,-2.94 -48.2,-4.35l-96.21 -8.9c-12.9,-1.68 -35.26,-2.19 -51.98,-4.62l-596 -50.83c-14.07,-26.57 -143.77,-622.61 -160.91,-695.81l-118.38 -524.16c-34.07,-164.22 -81.37,-360.6 -119.37,-527.21 -26.96,-118.19 -51.5,-232 -79.24,-349.13l-138.33 -613.32c-5.68,-25.81 -17.81,-65.73 -18.5,-90.62zm566 2868.95c11.23,0.25 40.6,3.25 55.47,5.17 14.25,1.85 44.61,3.97 58.86,5.82 39.47,5.12 76.38,6.45 115.81,9.52 75.62,5.89 152.09,14.12 230.44,20.21l344.25 31.71c41.01,3.18 79.39,8.39 120.98,8.39 0,-25.1 11.32,-63.74 16.46,-88.61 5.78,-27.97 12.66,-62.66 19.12,-89.99l548.19 -2268.5c16.93,-74.48 67.12,-292.79 67.12,-369.32l-675.15 -84.86c-6.45,13.45 -10.39,39.73 -14.59,58.15l-42.01 188.34c-9.87,41.54 -17.86,83.2 -26.61,126.95l-228.42 1145.56c-29.17,145.76 -53.17,300.32 -93.53,443.94 -3.71,13.22 -11.21,45.75 -19.34,57.45 0,-17.47 -3.43,-26 -6.37,-42.12 -3.2,-17.47 -4.55,-27.53 -7.49,-45.05 -50.24,-300.4 -122.44,-648.56 -182.55,-948.95 -42.53,-212.52 -92.83,-467.3 -141.6,-678.75 -13.1,-56.82 -72.62,-338.45 -93.17,-367.53 -23.81,-33.71 -274.84,-50.95 -312.55,-51.28 -118.8,-1.01 -274.8,-16.01 -396.34,-16.01 0,27.23 75.73,346.56 80.9,367.67l166.72 738.49c31.52,148.18 72.97,309.51 103.77,457.95 31.1,149.88 72.76,311.22 104.44,461.32l124.73 554.19c14.24,62.64 27.55,123.03 42.04,184.26l40.42 185.88z"/>
   <path class="fil8" d="M8955.22 10371.38l-392.18 32.29c-23.47,1.12 -36.88,3.45 -56.58,4.07l-452.79 36.37 0 820.28c67.04,0 127.25,-11.24 190.04,-12.1 28.55,-0.39 65.45,-6.76 93,-8.07 34.04,-1.62 67.17,-4.2 97.58,-7.52l282.38 -20.82c30.54,-0.42 68.43,-5.68 97.06,-8.06 0,20.27 3.95,28.1 4.2,48.33 0.21,17.07 -1.09,35.87 -0.18,52.71l-4.02 315.16c-63.93,0 -125.91,10.51 -190.1,12.04l-569.96 40.49c0,94.52 -4.04,175.67 -4.04,270.73 0,92.94 0,185.88 0,278.81 0,49.61 -4.15,87.5 -4.05,133.34l0.01 416.21c-15.43,0.34 -55.69,5.08 -69.84,6.97 -19.95,2.66 -53.51,4.69 -71.66,5.15 -63.63,1.59 -211.89,20.65 -283.07,24.17 -48.48,2.39 -95.78,8.4 -141.43,12.2 0,-154.14 -4.04,-297.07 -4.04,-448.53 0,-150.86 0,-301.71 0,-452.56 0,-79.05 -4.04,-146.06 -4.04,-222.25l12.13 -1644.59 181.96 -16.13c31.37,-1.49 63.17,-3.43 90.01,-7.01l741.66 -58.79c63.02,-8.31 448.64,-32.89 462,-39.29l0.02 327.33c0.2,37.82 -4.07,67.33 -4.07,109.07zm-1560.53 294.98l0 1127.37c0,76.71 4.05,143.09 4.05,222.24 0,148.16 0,296.32 0,444.49 0,150.45 4.04,291.61 4.04,444.48 72.62,0 235.95,-19.93 327.44,-24.28l376.3 -32.01c18.23,-2.6 16.35,0.66 15.92,-44.69 -2.59,-269.83 4.01,-547.86 4.01,-820.31 0,-82.97 4.04,-151.82 4.04,-234.37 45.68,0 86.84,-5.84 133.41,-8.08l590.38 -44.33c39.25,-1.37 37.32,6.23 36.37,-36.37 -0.64,-28.95 3.79,-39.92 4.1,-64.61 0.29,-24.14 -0.16,-48.79 -0.26,-72.99 -0.12,-28.17 4.36,-39.24 4.19,-68.54 -0.35,-61.13 -2.15,-297.89 -18.24,-321.33 -9.1,-13.27 -80.59,1.5 -119.29,2.03 -19.93,0.28 -41.51,2.55 -64.43,4.3l-123.23 10.18c-17.52,2.62 -48.37,4.37 -63.22,5.51l-157.66 12.12c-26.92,2.06 -61.58,0.97 -95.09,5.99 -18.9,2.83 -46.78,4.03 -62.95,5.77l-64.08 4.64 0 -670.76c11.52,0 405.9,-26.87 458.55,-34.67 17.95,-2.65 41.61,-2.72 56.01,-4.63 16.8,-2.21 42.12,-3.87 55.72,-4.91 20.56,-1.58 39.95,-3.47 56.39,-4.25l259.05 -19.89c12.79,-1.11 19.87,1.09 19.87,-12.47l0 -577.83 -282.38 20.82c-44.4,4.7 -94.76,9.25 -142.04,11.58 -74.28,3.68 -210.28,20.67 -283.1,24.14 -46.2,2.2 -100.79,5.53 -142.59,11.04 -62.26,8.21 -213.7,14.38 -285.3,21.93 -44.62,4.72 -94.06,9.22 -142.05,11.58 -44.57,2.21 -96.53,10.93 -141.57,12.05l-176.42 13.6c-18.67,2.36 -24.29,-0.67 -28.9,11.51l-8.95 144.61c0.03,29.83 -2.78,49.04 -4.06,72.71 -2.6,48.1 0.01,104.54 0.02,153.57 0,53.47 -4.05,94.22 -4.05,149.51 0,51.18 0,102.36 0,153.55z"/>
   <path class="fil8" d="M12379.5 11151.25c35.65,0 56.33,4.28 88.89,4.09 213.77,-1.22 436.48,12.07 646.91,12.07l0 404.08c0,19.06 -19.79,8.06 -80.86,8.08l-92.97 -4.06c-30.61,-1.65 -66.02,0.2 -97.19,0.16 -22.21,-0.03 -26,-3.21 -44.31,-4.2l-424.51 -12.1c0,135.03 -4.05,256.8 -4.05,391.95l0 699.05 -557.91 -4.04 0 -2780.05 133.58 3.88c21.79,0.27 23.82,3.73 44.18,4.34 30.34,0.91 63.09,-1.78 93.13,-0.15l541.7 20.24c30.08,1.62 62.94,-1.66 93.03,-0.04l88.92 4.06c36.83,-0.02 59.68,4.29 92.93,4.1 65.45,-0.38 116.28,4.3 182.03,3.93l137.57 3.93c22.03,0.27 24.12,4.2 44.31,4.2l0 214.16c0,78.88 4.04,143.59 4.04,222.24l-165.81 -3.98c-25.98,0.15 -34.92,-3.58 -56.41,-4.23 -36.61,-1.09 -76.37,3.04 -111,-2.2 -37.14,-5.62 -77.24,1.23 -115.32,-1.92 -34.63,-2.87 -68.98,-3.9 -109.46,-3.73l-339.51 -12.22c0,280.2 8.09,550.88 8.09,828.36zm-642.81 1571.86l711.54 4.03 4.04 -1086.96 88.81 4.18c32,0.95 65.3,-1.23 97.29,-0.27l181.67 8.35c30.62,0.91 62.49,-0.68 93.28,-0.3l92.82 4.2c64.4,0 118.82,4.04 185.97,4.04l0 -569.74 -133.55 0.13c-19.95,-0.6 -20.21,-3.71 -40.16,-4.31 -57.59,-1.72 -120.33,6.17 -175.68,-2.2 -52.46,-7.93 -121.19,2.61 -175.97,-1.92 -54,-4.47 -118.05,-4.64 -178.33,-3.59 -37.52,0.65 -32.21,5.59 -32.11,-56.81l-4.04 -262.64c0,-122.33 -4.04,-232.23 -4.04,-355.59 18.9,0 37.84,-0.17 56.74,-0.14l501.18 16.29c94.28,-0.35 244.3,12.13 339.59,12.13l-4.05 -593.99c-97.92,0 -201.55,-8.59 -299.22,-8.03 -34.67,0.2 -61.99,-4.11 -101.02,-4.09l-198.69 -7.5c-30.7,-3.44 -68.84,1.14 -100.5,-0.57l-299.01 -12.28c-71.56,-0.09 -130.88,-2.85 -202.44,-3.74l-96.87 -4.2c-39.6,0.02 -63.37,-4.19 -101.06,-4.05 -70.96,0.26 -132.44,-4.03 -206.19,-4.03l0 2933.6z"/>
   <path class="fil8" d="M10875.57 11256.31c36.61,49.94 184.59,140.04 239.29,172.99 89.68,54.02 151.36,119.93 205.66,210.64 45.94,76.76 72.83,151.1 87,244.39 3.58,23.57 7.92,49.89 9.57,71.24 4.45,57.38 4.29,123.95 -3.07,182.38 -36.37,288.48 -182.13,434.25 -464.2,517.95 -52.57,15.6 -122.04,31.48 -179.12,39.17 -316.19,42.55 -790.16,60.05 -1095.34,-41.16 -92.09,-30.55 -181.68,-73.45 -250.16,-141.93 -28.23,-28.25 -44.48,-44.56 -67.41,-78.1 -8.11,-11.88 -11.94,-21.15 -19.31,-33.22 -20.36,-33.33 -42.03,-103.26 -50.07,-143.92 -32.25,-163.11 -19.48,-327.15 32.14,-477.71 25.61,-74.71 74.17,-160.6 130.92,-216.65 15.22,-15.05 27.33,-27.28 42.46,-42.41 106.91,-106.94 201.66,-139.77 319.67,-205.79 16.16,-9.05 48.79,-24.75 55.3,-33.63 -20.01,-1.66 -54.26,-17.43 -73.28,-23.73 -114.4,-37.87 -165.46,-52.23 -262.35,-125.7 -36.54,-27.71 -68.07,-61.99 -96.43,-97.58 -72.87,-91.42 -128.9,-216.57 -146.77,-346.27 -16.74,-121.5 -9.7,-243.22 24.42,-344.72 16.83,-50.03 33.78,-92.33 59.42,-134.57 15.97,-26.29 38.5,-63.78 59.38,-86.11 48.71,-52.06 61.43,-69.93 127.6,-114.92 37.25,-25.33 85.96,-54.95 128.54,-69.52 167.08,-57.14 305.45,-87.32 486.59,-99.57 144.35,-9.77 280.73,-12.98 425.36,3.45 132.7,15.07 218.43,32.91 339.42,72.92 60.11,19.88 89.12,37.11 142.36,63.79 64.6,32.39 119.9,82.83 167.35,135.79 47.57,53.1 87.24,135.6 100.43,210.76 23.02,131.18 22.99,267.74 -0.59,400.13 -25.18,141.4 -77.5,260.14 -190.51,351.05l-89.42 64.17c-17.37,10.89 -187.5,106.36 -194.85,116.39zm-1200.72 44.45c-27.46,6.39 -156.81,93.22 -186.93,120.27 -119.38,107.25 -173.95,168.21 -230.07,307.46 -22.96,56.97 -38.08,116.28 -49.68,180.67 -31.73,176.03 -10.26,418.42 75.27,550.55 62.01,95.79 149.03,176.92 255.09,221.85 29.19,12.37 49.48,24.32 82.23,35 16.63,5.42 26.76,10.22 41.43,15.15 64.32,21.63 175.49,42.56 246.42,52.73l218.88 19.64c218.26,2.7 460.14,-1.61 669,-34.75 69.77,-11.07 133.39,-26.84 192.76,-45.75l86.73 -30.49c60.69,-24.18 102.58,-48.99 156.21,-82.27 67.08,-41.64 161.29,-150.96 193.18,-223.12 113.83,-257.59 95.4,-615.47 -70.44,-834.68 -12.34,-16.31 -20.31,-27.79 -32.88,-43.91 -8.51,-10.89 -10.48,-12.1 -18.89,-21.53 -8.16,-9.17 -9.1,-12.82 -18.18,-22.25 -12.89,-13.38 -25,-25.82 -38.42,-38.37 -28.18,-26.36 -236.67,-153.16 -241.62,-154.49 8.44,-12.6 27.66,-21.28 43.08,-29.67 105.33,-57.3 178.09,-111.32 251.47,-201.23 17.7,-21.68 15.35,-15.15 32.74,-44.05 114.86,-190.94 137.76,-476.52 92.87,-694.54 -26.25,-127.5 -65.39,-171.6 -131.41,-256.57 -30.34,-39.04 -112.71,-101.93 -154.06,-124.83 -251.03,-139.04 -504.98,-168.44 -789.63,-168.44 -223.19,0 -557.78,42.02 -749.36,139.99 -154.8,79.17 -266.05,199.92 -335.25,359.93 -32.44,74.99 -50.18,155.16 -58.92,236.09l-4.43 96.16c6.64,76.75 7.75,98.95 22.98,175.06 24.01,120.1 75.21,210.35 139.3,305.26l44.67 52.32c59.23,66.62 146.5,135.89 230.97,165.14 13.95,4.84 27.6,7.73 34.89,17.67z"/>
   <path class="fil8" d="M17133.86 13030.21c-150.53,0 -235.03,-5.17 -383.8,-16.43 -225.65,-17.09 -549.24,-66.62 -782.87,-102.46 -22.83,-3.51 -48.32,-10.42 -70.43,-10.42l4.04 -2731.56c18.92,4.4 51.05,6.34 72.66,8.19 24.24,2.08 46.49,5.57 72.15,8.71 248.9,30.49 460.49,75.14 701.82,122.85 48.76,9.64 89.12,19.32 134.96,30.78 93.23,23.29 227.58,53.36 319.02,89.26 60.9,23.9 111.68,45.7 165.83,84.78l92.9 72.82c11.1,9.27 31.15,29.32 40.43,40.41 145.35,173.74 177.46,309.25 208.62,534.99 2.21,16.02 6.49,55.63 6.96,73.86l7.97 408.23c0,55.23 0,110.45 0,165.67 0,58.75 4.07,106.74 4.04,161.63l0.01 246.5c0.21,55.31 -10.34,178.18 -16.18,230.32 -12.5,111.62 -50.22,284.57 -118.92,378.15 -34.87,47.5 -72.22,91.91 -122.82,123.73 -58.08,36.55 -109.27,58.31 -182.03,68.59 -46.27,6.54 -100.62,11.4 -154.36,11.4zm671.11 -1137.75l0 282.53c-1.58,105.93 -5.49,197.74 -13.3,260.05 -19.13,152.75 -56.49,342.78 -155.53,462.78 -89.9,108.93 -190.07,177.05 -336.28,197.28 -101.49,14.04 -161.82,11.88 -263.03,11.88 -90.6,0 -159.11,-9.95 -242.6,-12.08 -22.95,-0.59 -55.02,-6.1 -77.08,-7.82 -217.01,-16.84 -596.32,-71.05 -824.45,-109.39 -22.06,-3.71 -51.36,-10.36 -72.75,-12.14 0,-480.85 0,-961.7 0,-1442.55 0,-482.12 4.04,-951.92 4.04,-1434.47 53.26,0 113.44,7.19 165.04,12.83 161.55,17.67 303.3,43.67 462.7,70.92 174.87,29.88 342.93,65.65 513.93,108.61 73.43,18.45 131.89,31.75 206.12,56.64 73.63,24.68 119.68,40.61 186.77,80 95.48,56.06 168,117.88 236.75,203.82 82.18,102.71 136.87,236.21 164.23,365.21 15.86,74.8 26.8,156.09 33.1,233.59 1.18,14.51 -0.81,29.2 0.8,43.65 1.57,14.07 3.63,20.85 3.55,40.9 -0.54,131.16 5.66,362.12 7.99,587.76z"/>
   <path class="fil8" d="M16515.31 10771.42c17.63,0.39 22.04,4.24 44.36,4.15 74.54,-0.29 235.19,28.09 300.72,46.94 97.59,28.05 192.45,65.98 231.94,164.17 61.36,152.53 37.49,556.68 37.49,746.44l-0.14 210.26c0.04,27.27 4.24,44.93 4.19,76.63 -0.1,55.14 -4.18,102.72 -4.04,161.64l-11.71 153.97c-14.56,70.69 -25.76,115.25 -92.52,154.01 -100.76,58.51 -313.59,13.67 -428.87,-5.5 -19.29,-3.2 -53.44,-11.11 -73.33,-11.55l-4.05 -1276.88c0,-143.46 -4.04,-278.2 -4.04,-424.28zm691.32 969.78c0,-151.5 4.01,-289.66 4.05,-440.44 0.01,-40.9 -4.01,-66.51 -3.92,-105.19 0.19,-79.95 -25.88,-209.49 -62.08,-277.37 -49.21,-92.27 -161.43,-140.3 -272.16,-172.46 -59.24,-17.21 -119.7,-26.13 -185.56,-36.79 -67.45,-10.92 -180.27,-14.31 -248.46,-14.31 0,584.47 8.08,1173.87 8.08,1757.74 0,17.55 0.16,35.11 -0.14,52.67 -0.53,30.77 -6.36,33.22 19.28,37.3l286.86 44.62c64.31,9.47 138.85,12.8 204.15,3.54 34.35,-4.87 57.9,-12.06 85.35,-23.79 23.16,-9.91 52.23,-28.1 68.6,-44.58 78,-78.51 78.03,-138.89 90.8,-236.55 4.62,-35.36 5.17,-70.16 5.15,-107.99 -0.01,-40.87 4.2,-66.58 4.06,-105.04 -0.14,-37.7 -0.14,-75.47 0,-113.17 0.14,-38.46 -4.07,-64.18 -4.06,-105.05 0.01,-37.71 0,-75.43 0,-113.14z"/>
   <path class="fil8" d="M10289.36 12250.34c-78.23,0 -225.38,7.5 -278.1,-49.35 -93.15,-100.45 -45.17,-496.19 -1.8,-565.79 49.94,-80.14 225.58,-71.54 312.38,-71.65 90.82,-0.13 246.46,-29.77 329.84,33.72 102.89,78.33 84.5,372.83 69.07,490.25 -3.55,27.04 -9.39,56.73 -14.46,82.51 -5.33,27.04 -3.78,27.54 -59.48,41.58 -97.95,24.68 -237.61,38.73 -357.45,38.73zm-408.33 -294.98c0,113.99 8.77,224.27 75.83,300.01 27.18,30.72 58.22,45.74 105.2,56.47 156.06,35.67 525.41,8.21 648.97,-40.09 46.39,-18.13 55.92,-20.27 62.85,-50.32 7.49,-32.49 14.98,-65.63 19.66,-97.53 20.11,-137.2 28.68,-300.36 -6.87,-435.28 -13.28,-50.4 -41.91,-111.5 -80.25,-146.07 -38.16,-34.41 -113.75,-58.77 -166.4,-59.96 -35.77,-0.81 -65.91,-7.9 -106.82,-1.71 -39.92,6.05 -185.64,3.63 -224.72,5.73 -60.47,3.25 -133.66,12.21 -186.58,39.8 -54.93,28.63 -83.95,66.55 -101.96,124.37 -22.48,72.15 -38.91,224.13 -38.91,304.58z"/>
   <path class="fil8" d="M10434.9 11013.86c-88.69,0 -290.65,10.89 -359.81,-20.2 -106.37,-47.81 -113.2,-158.19 -113.2,-294.98l0 -185.87c0,-119.24 52.71,-140.91 159.36,-159.94 115.13,-20.54 274.92,-17.85 402.59,-17.85 75.06,0 135.84,21.83 158.98,75.47 48.52,112.53 59.84,538.17 -104.22,589.42 -32.93,10.28 -101.36,13.95 -143.7,13.95zm-549.83 -509.14c0,151.34 -17.2,378.15 61.74,483.8 54.87,73.43 140.89,102.12 237.43,102.12 96.87,0 354.38,10.78 430,-22.79 92.32,-41 129.45,-116.54 154.65,-217.18 32.54,-129.96 36.6,-386.11 -28.35,-493.84 -71.66,-118.86 -228.32,-98.59 -358.2,-98.59 -113.06,0 -252.41,5.67 -338.13,33.79 -108.68,35.67 -159.14,88.32 -159.14,212.69z"/>
   <path class="fil9" d="M4272.1 14877.95c-66.62,11.32 -121.36,-8.44 -165.83,-59.1 -22.16,-25.25 -39.98,-55.34 -50.34,-90.97 -10.36,-35.64 -14.8,-76.49 -14.8,-122.27 0,-46.07 4.47,-88.65 14.8,-127.77 10.4,-39.39 28.39,-75.44 50.34,-108.5 43.19,-65.02 99.22,-104.11 165.83,-115.74 85.89,-15.01 148.07,28.24 185.08,129.79 -32.57,26.95 -63.67,53.46 -94.76,79.97 -5.92,-23.76 -19.32,-42.22 -35.53,-56.21 -16.36,-14.11 -35.56,-19.24 -54.79,-15.94 -35.55,6.11 -63.67,27.82 -85.87,65.05 -22.21,37.23 -34.06,80.98 -34.06,130.38 0,49.39 11.88,88.62 34.06,118.2 22.24,29.67 50.33,41.51 85.87,35.5 19.24,-3.26 38.5,-14.93 54.79,-34.63 16.28,-19.7 29.61,-42.88 35.53,-68.52 31.09,15.79 62.19,31.73 94.76,47.08 -14.8,48.53 -38.86,90.53 -69.59,127.33 -29.97,35.92 -69.59,58.56 -115.49,66.35zm602.62 -190.63c-43.27,65.83 -96.25,104.39 -162.87,115.74 -65.15,11.1 -119.57,-9.14 -162.87,-60.27 -21.85,-25.79 -40,-55.77 -50.34,-91.4 -10.38,-35.78 -14.81,-76.49 -14.81,-122.12 0,-45.63 4.45,-87.93 14.81,-127.19 10.36,-39.25 28.44,-75.57 50.34,-108.94 43.24,-65.86 97.72,-105.08 162.87,-116.47 66.62,-11.64 119.65,8.8 162.87,59.83 21.92,25.89 38.5,56.21 48.86,91.99 10.37,35.78 16.29,76.34 16.29,122.12 0,45.78 -5.91,88.52 -16.29,127.91 -10.34,39.27 -27,75.54 -48.86,108.8zm-162.87 -22.17c35.53,-5.98 62.68,-27.09 84.4,-64.46 21.22,-36.51 31.09,-80.4 31.09,-130.67 0,-50.27 -9.81,-90.65 -31.09,-119.94 -21.66,-29.82 -48.87,-41.48 -84.4,-35.35 -34.06,5.88 -63.67,27.81 -84.39,64.61 -20.73,36.79 -32.58,80.54 -32.58,130.81 0,50.12 11.78,89.86 32.58,119.66 20.66,29.6 50.34,41.08 84.39,35.34zm681.1 20.43c-35.54,5.36 -71.08,10.57 -106.61,15.79 -31.1,-54.04 -62.19,-108.07 -91.8,-162.25 -29.61,-54.17 -59.23,-108.5 -88.84,-162.68 0,58.67 0,117.34 0,175.87 0,58.52 0,117.19 0,175.71 -37.01,5.51 -74.03,11.01 -109.57,16.23 0,-101.12 0,-202.38 0,-303.49 0,-100.97 0,-202.23 0,-303.49 37.02,-5.65 74.03,-11.3 112.53,-17.09 28.13,51.43 57.69,102.75 85.88,154.28 28.07,51.31 57.75,102.7 87.36,153.99 0,-55.78 0,-111.55 0,-167.32 0,-55.63 0,-111.54 0,-167.32 37.01,-5.65 74.03,-11.3 111.05,-16.8 0,101.55 0,202.95 0,304.36 0,101.4 0,202.95 0,304.21zm473.8 -69.97c-35.54,5.36 -71.07,10.57 -106.61,15.93 -31.09,-54.46 -62.19,-108.64 -91.8,-162.97 -29.61,-54.32 -59.22,-108.79 -88.84,-163.11 0,58.81 0,117.63 0,176.44 0,58.67 0,117.48 0,176.15 -37.01,5.51 -74.03,11.01 -109.56,16.37 0,-101.4 0,-202.95 0,-304.35 0,-101.55 0,-203.1 0,-304.65 37.01,-5.8 74.03,-11.45 112.53,-17.09 28.13,51.43 57.68,103.03 85.87,154.71 28.07,51.46 57.75,103 87.36,154.57 0,-55.92 0,-111.98 0,-167.9 0,-55.91 0,-111.83 0,-167.89 37.02,-5.51 74.03,-11.3 111.05,-16.81 0,101.84 0,203.68 0,305.37 0,101.84 0,203.53 0,305.23zm389.4 -49.98c-105.12,13.19 -208.77,26.22 -312.41,39.26 0,-101.84 0,-203.68 0,-305.66 0,-101.84 0,-203.82 0,-305.66 103.64,-13.47 207.29,-26.66 312.41,-40.42 0,45.92 0,91.85 0,137.62 -68.11,8.84 -136.21,17.68 -202.84,26.08 0,31.87 0,63.59 0,95.46 65.15,-8.4 131.77,-16.8 198.4,-25.49 0,46.06 0,91.98 0,137.91 -66.63,8.54 -133.25,16.95 -198.4,25.2 0,34.62 0,69.1 0,103.58 66.63,-8.41 134.73,-16.95 202.84,-25.64 0,45.92 0,91.84 0,137.76zm273.92 -23.32c-66.61,8.46 -121.42,-14.34 -165.83,-67.94 -22.21,-26.8 -38.48,-58.39 -48.86,-95.18 -10.34,-36.65 -16.29,-78.22 -16.29,-124.87 0,-46.79 5.95,-89.95 16.29,-129.36 10.38,-39.54 26.63,-75.35 48.86,-107.63 44.39,-64.48 99.21,-101.06 165.83,-109.66 85.88,-11.1 148.06,35.92 186.56,140.8 -32.57,25.64 -63.67,51.14 -94.76,76.49 -7.4,-24.19 -19.74,-43.31 -37.02,-58.53 -16.79,-14.78 -35.52,-21.34 -54.78,-18.83 -34.04,4.44 -63.69,25.05 -85.87,61.86 -22.24,36.92 -32.58,80.4 -32.58,130.66 0,50.13 10.4,90.96 32.58,122.12 22.24,31.27 51.82,44.62 85.87,40.27 19.25,-2.45 38.19,-13.74 54.78,-32.59 17.46,-19.83 29.62,-42.15 37.02,-68.23 31.09,17.53 62.19,35.21 94.76,52.59 -16.28,48.52 -40.3,90.26 -71.07,126.17 -29.93,34.93 -68.1,55.84 -115.49,61.86zm439.75 -63.45c-37.01,3.62 -74.03,7.53 -111.05,11.3 0,-79.24 0,-158.77 0,-238.15 0,-79.39 0,-158.92 0,-238.3 -39.98,5.07 -79.95,10.13 -119.93,15.35 0,-45.92 0,-91.99 0,-138.05 115.49,-14.92 232.46,-27.82 349.43,-40.42 0,46.21 0,92.42 0,138.49 -39.97,4.34 -79.95,8.55 -118.45,12.6 0,79.53 0,159.2 0,238.59 0,79.53 0,159.06 0,238.59zm281.32 -28.98c-37.01,3.77 -74.03,7.54 -109.57,11.3 0,-102.7 0,-205.41 0,-307.97 0,-102.71 0,-205.42 0,-308.13 35.54,-3.76 72.56,-7.67 109.57,-11.58 0,102.71 0,205.56 0,308.26 0,102.71 0,205.42 0,308.12zm473.81 -48.52c-35.54,3.62 -71.07,7.09 -106.61,10.71 -31.1,-56.2 -62.22,-112.54 -91.8,-168.9 -29.64,-56.49 -59.23,-113.14 -88.84,-169.49 0,59.54 0,119.07 0,178.61 0,59.4 0,118.93 0,178.33 -37.01,3.77 -74.03,7.68 -109.56,11.44 0,-102.71 0,-205.56 0,-308.26 0,-102.85 0,-205.71 0,-308.56 37.01,-3.91 74.03,-7.82 112.52,-11.88 28.14,53.74 57.69,107.23 85.88,160.94 28.07,53.48 57.74,107.05 87.36,160.51 0,-56.5 0,-113.28 0,-169.78 0,-56.5 0,-113.28 0,-169.92 37.01,-3.91 74.03,-7.82 111.05,-11.73 0,102.99 0,206.13 0,309.13 0,102.85 0,205.85 0,308.85zm285.76 -13.47c-65.15,5.23 -119.96,-19.55 -164.35,-74.75 -22.24,-27.65 -39.96,-59.98 -50.35,-97.79 -10.34,-37.66 -16.28,-80.39 -16.28,-128.2 0,-47.95 5.91,-91.7 16.28,-131.39 10.35,-39.55 28.11,-75.49 50.35,-106.76 44.39,-62.45 99.21,-96.42 164.35,-101.84 44.42,-3.7 81.71,7.21 112.53,33.61 29.88,25.6 53.3,59.97 69.58,101.98 -31.08,25.78 -62.18,51.43 -91.8,77.21 -8.88,-21.58 -21.08,-38.99 -37.01,-53.16 -15.17,-13.51 -32.57,-20.1 -53.3,-18.4 -34.05,2.79 -61.66,22.64 -84.4,58.52 -23.16,36.56 -34.05,79.53 -34.05,130.38 0,50.7 10.89,92.04 34.05,124.87 22.74,32.22 50.34,47.35 84.4,44.62 14.8,-1.18 29.61,-6.08 44.42,-14.63 14.81,-8.55 26.65,-18.25 34.05,-28.83 0,-16.08 0,-32.16 0,-48.24 -32.57,2.61 -63.66,5.07 -94.76,7.68 0,-46.79 0,-93.58 0,-140.23 68.11,-5.65 136.22,-11.15 205.81,-16.8 0,41.14 0,82.28 0,123.28 0,40.99 0,81.99 0,122.99 -50.34,84.59 -114.02,129.82 -189.52,135.88zm623.34 -61.14c-37.01,3.04 -74.03,6.09 -109.56,9.13 0,-80.25 0,-160.51 0,-240.62 0,-80.11 0,-160.36 0,-240.62 -39.98,3.2 -79.96,6.52 -119.93,9.86 0,-46.5 0,-93.01 0,-139.51 115.49,-9.56 230.98,-19.12 347.95,-28.82 0,46.64 0,93.29 0,139.79 -39.98,3.19 -79.96,6.52 -118.46,9.56 0,80.26 0,160.51 0,240.76 0,80.11 0,160.36 0,240.47zm570.05 -34.62c-37.02,2.03 -74.03,4.35 -111.05,6.52 0,-41.72 0,-83.44 0,-125.02 0,-41.71 0,-83.44 0,-125.16 -59.22,3.33 -118.45,6.81 -177.67,10.29 0,41.57 0,83.44 0,125.02 0,41.72 0,83.43 0,125.01 -37.02,2.03 -74.04,4.2 -109.57,6.38 0,-103.73 0,-207.45 0,-311.03 0,-103.71 0,-207.58 0,-311.3 35.53,-2.17 72.55,-4.35 109.57,-6.52 0,38.67 0,77.35 0,116.18 0,38.67 0,77.35 0,116.18 59.22,-3.48 118.45,-6.96 177.67,-10.43 0,-38.68 0,-77.36 0,-116.18 0,-38.68 0,-77.51 0,-116.18 37.02,-2.17 74.03,-4.5 111.05,-6.67 0,103.87 0,207.74 0,311.6 0,103.72 0,207.59 0,311.31zm389.41 -22.45c-105.13,6.22 -210.25,12.16 -313.9,18.11 0,-103.73 0,-207.59 0,-311.46 0,-103.72 0,-207.73 0,-311.6 103.65,-6.08 208.77,-12.31 313.9,-18.54 0,46.79 0,93.58 0,140.23 -68.11,4.05 -136.22,7.96 -202.85,11.88 0,32.44 0,64.89 0,97.2 65.15,-3.91 131.78,-7.68 198.41,-11.59 0,46.79 0,93.43 0,140.23 -66.63,3.91 -133.26,7.67 -198.41,11.58 0,35.2 0,70.41 0,105.61 66.63,-3.91 134.74,-7.82 202.85,-11.74 0,46.65 0,93.44 0,140.09zm670.72 -24.34c-39.97,1.45 -78.47,2.76 -116.96,4.06 -11.85,-64.76 -23.7,-129.8 -34.06,-194.7 -10.36,-64.89 -20.73,-129.94 -31.09,-194.84 -11.85,65.77 -22.21,131.4 -32.57,197.01 -10.37,65.63 -20.74,131.39 -31.1,196.87 -39.98,1.45 -78.47,2.76 -116.97,4.06 -20.73,-103.29 -42.94,-206.72 -62.19,-310.15 -19.25,-103.44 -41.45,-207.01 -60.7,-310.44 41.45,-1.45 82.91,-2.9 124.37,-4.35 10.37,69.1 20.73,138.35 31.1,207.44 10.36,69.1 20.72,138.2 32.57,207.3 11.84,-69.97 23.69,-139.93 35.53,-209.76 11.85,-69.82 25.17,-139.94 38.5,-209.9 28.13,-1.02 56.26,-2.03 84.39,-3.05 11.85,69.1 23.69,138.35 35.54,207.45 11.84,69.1 23.69,138.2 37.01,207.15 10.37,-69.82 20.73,-139.65 31.1,-209.62 10.35,-69.82 20.73,-139.79 32.57,-209.76 41.46,-1.44 82.92,-2.89 124.38,-4.34 -20.73,105.03 -42.94,210.05 -62.19,314.93 -19.25,104.88 -39.98,209.91 -59.23,314.64zm513.78 -93.15c-42.64,61.61 -97.72,92.15 -162.86,93.3 -66.63,1.17 -121.07,-27.35 -164.35,-86.34 -21.87,-29.81 -38.51,-63.45 -48.87,-101.84 -10.36,-38.38 -16.28,-81.12 -16.28,-128.35 0,-47.22 5.96,-90.53 16.28,-129.5 10.4,-39.25 26.97,-74.1 48.87,-105.47 43.24,-61.93 97.7,-95.16 164.35,-96.91 65.13,-1.72 120.28,28.73 162.86,89.09 21.08,29.88 37.02,64.62 47.39,103.29 10.36,38.67 17.77,81.7 17.77,129.07 0,47.23 -7.41,90.4 -17.77,129.36 -10.37,38.97 -26.38,73.94 -47.39,104.3zm-162.86 -49.54c34.05,-0.56 61.68,-18.42 82.91,-52.73 21.71,-35.08 32.57,-78.08 32.57,-130.09 0,-52 -10.96,-94.8 -32.57,-129.21 -21.33,-33.97 -48.87,-51.48 -82.91,-50.7 -35.54,0.81 -63.13,19.73 -84.4,54.46 -21.67,35.39 -32.58,78.67 -32.58,130.67 0,51.86 10.89,94.26 32.58,128.2 21.25,33.28 48.87,49.99 84.4,49.4zm647.03 123.86c-42.94,0.58 -84.39,1.01 -125.85,1.45 -11.84,-34.92 -23.69,-69.83 -35.53,-104.74 -11.85,-34.91 -23.7,-69.97 -35.54,-104.88 -19.25,0.15 -38.5,0.44 -56.26,0.58 0,35.2 0,70.26 0,105.32 0,35.05 0,70.25 0,105.31 -37.02,0.44 -74.04,0.87 -111.05,1.3 0,-104.44 0,-209.03 0,-313.48 0,-104.3 0,-208.89 0,-313.48 71.07,-0.87 142.15,-1.58 214.69,-2.46 45.9,-0.56 81.44,18.83 108.09,57.94 26.65,39.11 39.97,88.8 39.97,148.92 0,50.12 -8.95,91.09 -25.17,122.84 -16.34,31.99 -37.01,54.04 -59.22,66.06 13.32,38.25 28.13,76.5 41.45,114.73 13.32,38.24 29.62,76.34 44.42,114.59zm-167.31 -349.55c16.28,-0.2 28.14,-6.24 38.5,-18.26 10.37,-12.02 14.81,-28.68 14.81,-49.97 0,-20.72 -4.48,-36.92 -14.81,-48.68 -10.4,-11.84 -22.22,-17.73 -38.5,-17.53 -29.61,0.38 -57.74,0.73 -85.87,1.02 0,44.9 0,89.67 0,134.43 28.13,-0.29 56.26,-0.64 85.87,-1.01zm507.86 347.67c-94.76,-0.87 -188.04,0.14 -281.32,1.15 0,-104.44 0,-208.89 0,-313.33 0,-104.45 0,-208.9 0,-313.48 35.54,-0.44 72.55,-0.87 109.57,-1.31 0,80.98 0,162.1 0,242.93 0,80.98 0,161.96 0,242.94 56.26,-0.58 114.01,-0.58 171.75,0 0,47.08 0,94.16 0,141.1zm236.9 2.89c-60.7,-0.68 -119.93,-1.45 -179.16,-2.17 0,-104.45 0,-209.18 0,-313.77 0,-104.45 0,-209.19 0,-313.92 59.23,0.72 118.46,1.5 179.16,2.18 68.1,0.76 124.65,29.49 167.31,86.77 21,28.19 37.02,61.71 47.39,99.95 10.36,38.24 16.28,81.41 16.28,129.36 0,47.95 -5.92,90.98 -16.28,128.93 -10.37,37.96 -26.3,71.4 -47.39,99.38 -42.57,56.47 -99.21,84.05 -167.31,83.29zm0 -141.24c35.53,0.43 64.63,-16.41 85.88,-49.4 21.69,-33.65 32.57,-74.02 32.57,-122.26 0,-50.85 -10.4,-92.41 -31.09,-124.58 -20.76,-32.28 -48.87,-48.52 -87.36,-48.97 -23.69,-0.27 -47.38,-0.57 -69.59,-0.87 0,57.52 0,115.03 0,172.54 0,57.65 0,115.16 0,172.67 22.21,0.29 45.91,0.59 69.59,0.87zm383.49 88.08c0,77.06 -23.69,140.51 -72.55,190.06 -14.81,-16.37 -28.14,-32.74 -41.46,-49.25 10.36,-8.12 21.68,-21.19 32.57,-38.25 11.32,-17.72 19.25,-34.19 22.21,-50.55 -7.4,1.73 -11.85,2.79 -14.81,2.75 -14.8,-0.24 -26.16,-7.85 -35.53,-22.03 -9.89,-14.95 -14.81,-33.17 -14.81,-55.77 0,-23.75 5.99,-44.13 17.77,-60.84 11.91,-16.9 25.17,-25.26 41.46,-25.06 17.77,0.23 32.61,10.12 45.9,29.7 13.35,19.67 19.25,46.07 19.25,79.24zm593.73 -6.81c-42.59,59.49 -97.72,87.85 -162.87,85.61 -65.14,-2.24 -119.58,-34.72 -162.87,-96.91 -21.85,-31.39 -39.96,-66.21 -50.34,-105.46 -10.35,-39.11 -14.81,-82.28 -14.81,-129.65 0,-47.37 4.47,-90.4 14.81,-129.07 10.38,-38.82 28.34,-72.86 50.34,-103 43.14,-59.09 97.73,-87.79 162.87,-85.47 65.15,2.31 120.25,34.7 162.87,97.35 21.04,30.93 37.02,66.35 47.38,105.6 10.36,39.25 17.77,82.58 17.77,129.94 0,47.37 -7.41,90.26 -17.77,128.78 -10.36,38.54 -26.31,72.83 -47.38,102.28zm-162.87 -57.51c34.05,1.13 62.75,-14.71 84.4,-48.68 21.29,-33.4 31.09,-76.77 31.09,-128.78 0,-52.15 -9.86,-96.06 -31.09,-130.95 -21.71,-35.66 -50.35,-53.7 -84.4,-54.91 -35.54,-1.25 -63.7,15.05 -84.4,48.83 -20.75,33.87 -32.57,76.77 -32.57,128.77 0,52.15 11.85,95.9 32.57,131.11 20.73,35.2 48.87,53.43 84.4,54.61zm681.09 155.29c-35.53,-1.16 -71.07,-2.32 -106.6,-3.62 -31.09,-61.42 -62.16,-123.01 -91.8,-184.55 -29.58,-61.43 -59.23,-123.14 -88.84,-184.71 0,60.56 0,121.11 0,181.66 0,60.41 0,120.96 0,181.37 -37.02,-1.3 -74.03,-2.6 -109.57,-3.77 0,-104.44 0,-209.03 0,-313.62 0,-104.45 0,-209.19 0,-313.77 37.02,1.3 74.04,2.6 112.53,4.05 28.13,58.53 57.78,117.19 85.88,175.58 28.16,58.5 57.74,117.19 87.36,175.57 0,-57.37 0,-115.02 0,-172.39 0,-57.37 0,-115.02 0,-172.53 37.01,1.31 74.03,2.75 111.04,4.06 0,104.44 0,209.03 0,313.48 0,104.3 0,208.74 0,313.19zm389.41 22.31c-105.13,-6.23 -208.77,-12.17 -312.42,-18.11 0,-104.59 0,-209.18 0,-313.77 0,-104.59 0,-209.18 0,-313.92 103.65,6.24 207.29,12.46 312.42,18.84 0,47.08 0,94.01 0,140.95 -68.11,-4.06 -136.22,-8.11 -202.85,-12.17 0,32.74 0,65.33 0,97.93 65.15,3.76 131.78,7.82 198.41,11.73 0,46.93 0,94.02 0,140.95 -66.63,-3.91 -133.26,-7.82 -198.41,-11.59 0,35.49 0,70.84 0,106.33 66.63,3.91 134.74,7.82 202.85,11.88 0,46.93 0,94.02 0,140.95zm670.73 41.72c-39.98,-3.33 -78.48,-6.52 -116.97,-9.41 -11.84,-66.21 -22.22,-132.26 -32.58,-198.18 -10.36,-65.9 -20.73,-131.97 -31.09,-198.02 -11.84,64.75 -23.68,129.51 -34.05,194.26 -10.36,64.6 -20.73,129.36 -31.1,194.11 -39.98,-2.17 -78.47,-4.49 -116.97,-6.66 -20.73,-105.6 -42.93,-211.22 -62.18,-316.82 -19.24,-105.46 -39.98,-211.06 -59.23,-316.66 39.98,2.31 81.43,4.92 122.9,7.39 10.36,70.25 20.72,140.66 31.09,210.77 10.36,70.11 22.21,140.37 34.05,210.77 11.85,-68.95 23.71,-137.76 35.54,-206.57 11.85,-68.95 23.69,-137.76 37.01,-206.72 28.14,1.74 56.27,3.48 84.4,5.07 11.84,70.4 23.71,140.66 35.53,211.06 11.86,70.55 23.7,140.81 37.02,211.65 10.37,-68.81 20.73,-137.62 31.09,-206.28 10.37,-68.66 22.21,-137.48 34.06,-206.14 41.46,3.62 82.91,7.09 124.37,10.57 -20.73,102.56 -42.94,205.13 -62.18,307.84 -19.25,102.7 -41.46,205.12 -60.71,307.97zm544.87 44.18c-41.46,-3.33 -82.91,-6.81 -124.37,-10.13 -7.4,-30.43 -14.81,-61.14 -22.21,-91.7 -56.26,-4.5 -112.53,-9.28 -167.31,-13.62 -7.41,29.4 -14.81,58.96 -22.21,88.22 -41.46,-3.33 -82.92,-6.81 -124.37,-10.28 26.64,-101.84 53.3,-204.11 79.95,-306.1 26.65,-101.98 53.3,-203.97 81.43,-305.95 45.9,3.91 91.8,7.82 137.7,11.73 26.65,106.48 53.31,212.96 79.96,319.13 26.64,106.19 53.3,212.52 81.43,318.7zm-176.19 -244.67c-10.37,-39.98 -19.23,-79.97 -28.13,-119.94 -8.87,-39.84 -17.77,-79.68 -26.66,-119.8 -8.88,38.53 -17.75,76.92 -26.65,115.45 -8.87,38.39 -17.77,76.77 -26.65,115.31 35.54,2.9 71.07,5.94 108.09,8.98zm373.12 260.75c-37.02,-3.04 -74.04,-6.08 -109.57,-8.98 0,-80.54 0,-161.23 0,-241.77 0,-80.4 0,-161.09 0,-241.78 -39.98,-3.33 -79.95,-6.66 -119.93,-9.99 0,-46.8 0,-93.58 0,-140.38 115.49,9.86 232.46,19.71 349.43,30.42 0,46.8 0,93.58 0,140.23 -39.98,-4.2 -79.95,-7.67 -119.93,-11.01 0,80.54 0,161.24 0,241.63 0,80.55 0,161.09 0,241.63zm377.56 38.25c-37.02,-3.91 -74.03,-7.82 -109.57,-11.45 0,-80.39 0,-160.94 0,-241.49 0,-80.39 0,-160.93 0,-241.48 -39.97,-4.35 -79.95,-8.69 -119.93,-13.04 0,-46.64 0,-93.43 0,-140.22 115.49,12.6 230.98,25.35 347.95,38.1 0,46.64 0,93.29 0,139.79 -39.97,-4.35 -79.95,-8.55 -118.45,-12.75 0,80.4 0,160.94 0,241.34 0,80.4 0,160.8 0,241.2zm750.68 82.28c-42.93,-5.65 -84.4,-10.87 -125.85,-16.37 -7.41,-30.57 -14.81,-61.28 -20.73,-91.7 -56.26,-6.23 -112.53,-12.17 -168.79,-17.96 -7.41,28.82 -14.81,57.94 -20.73,87.06 -41.46,-4.35 -82.92,-8.69 -124.38,-13.04 26.66,-100.68 53.31,-201.36 79.96,-301.89 26.64,-100.54 53.3,-201.07 79.95,-301.61 45.9,4.93 91.8,10 139.18,15.07 26.66,106.33 53.32,213.24 79.96,320 26.67,106.91 53.3,213.53 81.43,320.44zm-176.2 -250.9c-10.36,-39.84 -19.26,-79.82 -28.13,-119.51 -8.9,-39.84 -17.76,-79.53 -26.65,-119.66 -10.36,37.81 -19.26,75.91 -28.13,113.72 -8.9,37.94 -17.77,75.9 -26.65,113.86 35.53,3.76 72.55,7.82 109.56,11.59zm373.12 276.11c-37.01,-4.78 -74.03,-9.57 -109.56,-14.06 0,-79.82 0,-159.92 0,-239.75 0,-79.96 0,-159.92 0,-239.89 -39.98,-5.5 -79.96,-10.71 -119.93,-16.08 0,-46.35 0,-92.85 0,-139.35 115.49,15.35 230.98,30.85 347.95,46.64 0,46.36 0,92.71 0,138.92 -39.98,-5.21 -79.96,-10.57 -118.46,-15.79 0,79.97 0,159.94 0,239.75 0,79.82 0,159.78 0,239.61zm750.69 100.96c-41.46,-6.37 -82.92,-12.75 -124.37,-18.97 -7.41,-30.57 -14.81,-61.28 -22.22,-91.99 -56.26,-8.26 -112.52,-15.5 -168.79,-22.75 -7.4,28.69 -14.81,57.23 -20.73,86.05 -41.46,-5.36 -82.91,-10.71 -124.37,-16.08 26.65,-99.23 53.32,-198.6 79.96,-297.69 26.66,-99.22 53.3,-198.46 79.95,-297.55 45.9,6.24 91.8,12.32 139.18,18.84 26.65,106.76 53.32,213.52 79.95,320.14 26.67,106.76 53.31,213.24 81.44,320zm-176.2 -253.8c-10.36,-39.98 -19.26,-79.96 -28.13,-119.65 -8.9,-39.83 -17.77,-79.53 -26.65,-119.37 -10.37,37.38 -19.25,74.61 -28.13,112.13 -8.89,37.51 -17.77,74.89 -26.66,112.26 35.54,4.64 72.55,9.42 109.57,14.63zm577.45 314.79c-37.01,-5.65 -74.03,-11.3 -111.05,-16.95 0,-79.09 0,-158.33 0,-237.28 0,-79.1 0,-158.34 0,-237.43 -39.97,-6.23 -79.95,-12.61 -119.93,-18.83 0,-45.93 0,-91.99 0,-137.91 115.49,18.39 232.46,36.94 349.43,55.48 0,45.92 0,91.7 0,137.47 -39.98,-6.37 -79.95,-12.6 -118.45,-18.69 0,79.1 0,158.2 0,237.14 0,78.96 0,158.05 0,237zm281.32 42.73c-37.01,-5.65 -74.03,-11.3 -111.05,-16.8 0,-101.69 0,-203.53 0,-305.22 0,-101.7 0,-203.54 0,-305.38 37.02,5.8 74.04,11.74 111.05,17.68 0,101.7 0,203.38 0,304.94 0,101.54 0,203.24 0,304.78zm561.16 97.5c-37.01,-6.38 -74.03,-12.9 -109.56,-19.13 0,-65.76 0,-131.39 0,-197.15 0,-65.77 0,-131.39 0,-197.3 -19.25,62.29 -37.03,124.87 -54.79,187.44 -17.76,62.58 -35.53,125.46 -53.3,188.04 -16.29,-2.9 -32.57,-5.8 -48.86,-8.41 -19.25,-69.38 -37.04,-138.63 -54.78,-207.58 -17.79,-69.1 -35.54,-138.35 -53.31,-207.59 0,66.06 0,132.12 0,198.03 0,66.05 0,131.96 0,198.02 -37.02,-6.52 -74.03,-13.04 -109.57,-19.41 0,-101.55 0,-203.09 0,-304.64 0,-101.55 0,-203.1 0,-304.79 50.35,9.27 100.69,18.54 152.51,28.25 14.81,57.65 29.61,115.45 44.42,173.11 14.8,57.65 29.61,115.16 44.42,172.82 14.8,-52.3 29.59,-104.46 44.41,-156.74 14.79,-52.16 29.62,-104.45 45.91,-156.31 50.34,9.27 100.68,18.54 152.5,28.1 0,100.83 0,201.94 0,302.76 0,100.83 0,201.65 0,302.48zm390.89 68.81c-105.13,-18.54 -210.25,-37.09 -313.9,-55.05 0,-100.83 0,-201.65 0,-302.33 0,-100.82 0,-201.64 0,-302.47 103.65,18.97 208.77,38.39 313.9,57.51 0,45.2 0,90.39 0,135.44 -68.11,-12.31 -136.22,-24.77 -204.33,-37.08 0,31.43 0,62.72 0,94.16 65.15,11.73 131.78,23.76 198.41,35.78 0,45.2 0,90.25 0,135.45 -66.63,-11.88 -133.26,-23.76 -198.41,-35.49 0,34.18 0,68.23 0,102.27 68.11,12.17 136.22,24.33 204.33,36.36 0,45.2 0,90.4 0,135.45z"/>
  </g>
 </g>
</svg>
