<?xml version="1.0" encoding="UTF-8"?>
<!DOCTYPE svg PUBLIC "-//W3C//DTD SVG 1.1//EN" "http://www.w3.org/Graphics/SVG/1.1/DTD/svg11.dtd">
<!-- Creator: CorelDRAW -->
<svg xmlns="http://www.w3.org/2000/svg" xml:space="preserve" width="228.6mm" height="228.6mm" version="1.1" style="shape-rendering:geometricPrecision; text-rendering:geometricPrecision; image-rendering:optimizeQuality; fill-rule:evenodd; clip-rule:evenodd"
viewBox="0 0 22860 22860"
 xmlns:xlink="http://www.w3.org/1999/xlink"
 xmlns:xodm="http://www.corel.com/coreldraw/odm/2003">
 <defs>
  <style type="text/css">
   <![CDATA[
    .str0 {stroke:#008CFF;stroke-width:7.62;stroke-miterlimit:22.9256}
    .fil4 {fill:#008CFF}
    .fil3 {fill:lime}
    .fil5 {fill:#0168B3}
    .fil6 {fill:#0264AB}
    .fil2 {fill:#FDFDFD}
    .fil1 {fill:#FDFDFE}
    .fil0 {fill:white}
   ]]>
  </style>
 </defs>
 <g id="Layer_x0020_1">
  <metadata id="CorelCorpID_0Corel-Layer"/>
  <g id="_2491114454336">
   <path class="fil0" d="M11430 3719.11c4258.6,0 7710.88,3452.29 7710.88,7710.89 0,738.43 -103.87,1452.61 -297.8,2128.69 10.41,-188.7 5.66,-382.22 -189.1,-438.92 -17.24,-5.02 -122.12,-8.27 -243.25,-10.35 129.25,-538.74 197.87,-1101.05 197.87,-1679.42 0,-3964.63 -3213.97,-7178.61 -7178.6,-7178.61 -3964.63,0 -7178.6,3213.98 -7178.6,7178.61 0,575.93 68.05,1135.94 196.25,1672.6 -81.01,1.02 -145.33,3.73 -165.3,9.54 -214.38,62.41 -196.43,239.95 -196.92,459.31 -0.1,40.98 3.23,73.09 5.59,101.32l-3.15 118.23c-239.11,-744.16 -368.75,-1537.38 -368.75,-2361 0,-4258.6 3452.28,-7710.89 7710.88,-7710.89zm7053.11 10830.76c-1197.97,2704.23 -3905.01,4591.02 -7053.11,4591.02 -3152.81,0 -5863.26,-1892.44 -7058.43,-4603.2 13.85,1 25.57,1.86 34.61,2.57 22.32,1.75 44.56,-0.92 67.1,1.55 33.2,3.63 88.32,5.19 126.37,10.91 67.38,10.13 130.46,5.03 193.95,11.98l183.92 14.4 0.68 0.01c1166.59,2385.96 3616.95,4029.5 6451.8,4029.5 2835.66,0 5286.63,-1644.46 6452.82,-4031.54l600.29 -27.2z"/>
   <g>
    <path class="fil1" d="M11581.57 12947.3c91,27.52 437.17,243.42 542.93,314.3 53.16,35.63 127.37,68.52 159.96,126.16 -79.28,37.5 -531.34,376.42 -679.92,451.44l-22.97 -891.9zm-989.65 432.93c73.61,-76.82 575.38,-366.49 698.17,-436.08 21.48,89.03 7.33,794.88 -14.37,892.85l-683.8 -456.77zm1063.85 -633.94c31.06,-44.22 344.42,-351.81 394.14,-377.96l290.49 798.93c-98.25,-39.38 -249.12,-146.35 -346.37,-205.82l-338.26 -215.15zm-820.93 -378.43c86.85,58.14 121.55,116.53 197.02,187.03 64.89,60.62 118.1,112.14 187.04,177.6 -64.55,89.44 -631.3,416.83 -676.48,432.34l292.42 -796.97zm121.03 -169.14c32.69,-49.89 310.43,-333.04 353.9,-350.7 13.23,108.12 14.19,613.9 -13.79,691.84l-180.33 -160.79c-49.97,-47.75 -125.94,-117.36 -159.78,-180.35zm611.07 -346.49c81.93,49.64 320.56,271.65 360.02,346.49 -19.37,48.63 -316.04,334.82 -355.05,350.96l-4.97 -697.45zm-255.51 -510.6l234.01 6.19c38.54,-56.44 12.64,-244.75 16.44,-330.7 63.9,97.52 258.49,682.3 288.56,830.24 -45.16,-23.49 -171.47,-139.16 -211.41,-176.35 -93.97,-87.5 -86.39,-94.54 -87.77,-268.11l-225.9 -0.55c-16.13,200.46 19.56,156.57 -95.36,269.07 -54.13,52.99 -136.4,134.88 -195.58,171.59 0.84,-8.2 212.95,-766.2 280.5,-832.13 3.59,88.55 -17,285.97 -3.49,330.75zm-16.46 -986.95c-23.4,265.81 -25.38,248.96 -130.91,528.55 -185.07,490.31 -292.12,907.69 -532.06,1451.13l-690.38 1616.1c-14.15,35 -79.78,221.44 -107.03,236.42 -37.71,20.74 -2834.76,24.01 -2951.6,23.88 -969.6,-1.04 -2000.61,-20.19 -2962.47,42.54 481.93,31.9 975.29,77.88 1470.36,95.55 515.33,18.38 1038.04,25.02 1553.62,30.25l2367.94 20.34c242.37,2.02 564.63,15.88 798.78,-2.17 75.21,-224.23 180.33,-416.63 250.27,-626.34 24.86,-74.54 43.49,-164.66 73.42,-233.22 78.71,27 823.33,521.3 833.23,567.67l-3.66 292.87 354.3 2.65 0.67 -310.9c90.96,-87.29 297.23,-212.56 407.04,-284.51 127.86,-83.76 285,-204.25 419.12,-266.19 99.73,361.47 259.66,634.28 325.46,858.69 661.28,35.99 5883.01,-25.33 6168.41,-147.89 -983.24,-40.95 -1953.64,-25.95 -2938.36,-38.2l-2214.16 -10.62c-238,-1.95 -515.38,9.75 -748.21,-9.11 -379.64,-893.65 -752.56,-1767.3 -1105.02,-2677.18 -88.82,-229.31 -159.41,-458.94 -245.24,-693.04 -45.56,-124.27 -106.96,-233.96 -106.65,-376.98 0.41,-188.39 118.74,-84.77 177.47,-306.32 73.06,-275.63 -208.35,-509.37 -473.74,-380.09 -256.57,125 -223.56,474.37 9.4,596.12z"/>
    <path class="fil1" d="M14291.01 11939.2c166.65,-77.79 463.92,-502.71 557.43,-662.56 452.19,-773.02 340.72,-1622.02 -152.71,-2339.27 -53.96,-78.44 -215.57,-283.18 -285.89,-316.25 431.89,788.44 545.58,1687.39 236.64,2592.04 -102.47,300.06 -231.2,478.95 -355.47,726.04z"/>
    <path class="fil1" d="M8575.27 11933.67c-60.56,-154.83 -202.41,-325.87 -344.37,-713.54 -309.92,-846.36 -224.07,-1863.57 226.54,-2596.85 -126.03,47.13 -414.79,494.85 -507.95,690.39 -392.67,824.14 -212.94,1625.27 317.39,2316.11 57.36,74.72 229.47,262.81 308.39,303.89z"/>
    <path class="fil2" d="M9112.11 11541.12c-49.39,-140.94 -151.16,-278.62 -264.26,-614.89 -177.1,-526.56 -159.65,-1138.59 40.59,-1657.79 32.31,-83.77 79.9,-172.61 105.14,-254.28 -131.35,63.9 -315.16,392.04 -381.46,546.89 -208.24,486.4 -184.74,1016.18 79.1,1475.25 105.41,183.41 275.97,412.95 420.89,504.82z"/>
    <path class="fil2" d="M13760.77 11546.16c524.38,-387.85 824.82,-1280.85 490.93,-1995.44 -99.24,-212.41 -240.68,-444.55 -383.54,-543.51 14.71,56.51 85.77,201.35 115.11,273.59 213.56,525.74 206.16,1168.88 22.9,1707.45 -57.19,168.06 -242.95,537.45 -245.4,557.91z"/>
    <path class="fil2" d="M9645.69 11121.11c-129.53,-300.36 -228.98,-398.88 -272.79,-797.14 -17.96,-163.24 -10.62,-332.61 16.06,-492.52 27.28,-163.43 88.82,-276.83 128.77,-421.25 -102.31,42.03 -235.26,274.73 -272.24,369.08 -70.53,179.95 -108.78,341.36 -84.2,557.9 36.53,321.85 286.72,709.38 484.4,783.93z"/>
    <path class="fil2" d="M13230.42 11124.93c231.37,-104.94 450.66,-475.63 481.49,-786.21 32.3,-325.3 -72.85,-606.55 -264.92,-844.81 -36.48,-45.25 -46.86,-63.48 -95.5,-83.24 34.32,133.1 93.93,253.97 128.31,404.4 74.95,328.05 32.57,627.37 -76.01,939.43 -49.78,143.07 -126.1,250.56 -173.37,370.43z"/>
    <polygon class="fil3" points="6954.1,11564.75 7654.34,11563.21 7654.17,11285.2 6951.68,11282.84 "/>
    <polygon class="fil3" points="6953.25,11938.72 7652.31,11939.49 7653.93,11660.58 6954.95,11658.93 "/>
    <polygon class="fil3" points="6954.75,12319.03 7648.18,12317.53 7653.22,12041.65 6952.22,12036.24 "/>
    <path class="fil3" d="M15263.99 11935.75c114.46,10.37 604.45,15.76 698.79,-4.92l1.92 -265.75 -696.86 -3.68 -3.85 274.35z"/>
    <polygon class="fil3" points="15267.87,12314.76 15957.73,12319.35 15963.54,12039.06 15265.37,12037.9 "/>
    <polygon class="fil3" points="14367.49,12689.39 15063.06,12688.24 15069.31,12414.08 14370.39,12413.06 "/>
    <polygon class="fil3" points="6063.39,12696.57 6758.77,12696.7 6756.27,12425.8 6060.02,12418.44 "/>
    <polygon class="fil3" points="16165.03,12694.06 16864.92,12696.15 16859.87,12421.18 16172.37,12419.03 "/>
    <polygon class="fil3" points="7847.22,12682.04 8550.12,12684.45 8550.44,12410.33 7851.65,12412.92 "/>
    <polygon class="fil3" points="15266.09,11560.37 15959.25,11561.86 15961.83,11291.43 15263.44,11284.84 "/>
    <polygon class="fil3" points="16165.32,12319.73 16861.35,12320.14 16861.78,12048.49 16168.41,12045.35 "/>
    <polygon class="fil3" points="6061.38,12321.49 6756.24,12320 6756.75,12050.79 6066.38,12046.13 "/>
    <polygon class="fil4" points="6953.87,12689.04 7647.85,12687.04 7651.62,12416.48 6959.68,12416.74 "/>
    <polygon class="fil4" points="15266.92,12685.61 15962.47,12690.1 15960.59,12424.72 15270.27,12418.3 "/>
    <polygon class="fil3" points="7853.99,13051.35 8537.57,13053.06 8547.68,12784.12 7854.85,12785.95 "/>
    <path class="fil4" d="M7642.45 13049.96l6.54 -260.43 -692.85 0.1c-12.58,292.9 -51.25,263.45 203.61,263.23 157.81,-0.13 326.14,5 482.7,-2.9z"/>
    <polygon class="fil3" points="14375.43,13052.67 15061.45,13056.43 15065.39,12790.29 14377.93,12788.9 "/>
    <polygon class="fil4" points="16166.58,13056.66 16859.26,13057.41 16860.5,12798.04 16165.65,12792.83 "/>
    <polygon class="fil4" points="6064.28,13059.38 6754.87,13057.92 6755.57,12800.68 6061.49,12793.46 "/>
    <path class="fil4" d="M15273.74 13049.11l686.18 4.68 1.61 -259.72 -575.46 -3.16c-98.45,-0.46 -115.61,-21.52 -119.28,66.91 -2.18,52.48 -1.9,141.91 6.95,191.29z"/>
    <polygon class="fil3" points="13476.7,13051.52 14175.29,13050.21 14173.3,12796.33 13476.43,12792.19 "/>
    <polygon class="fil3" points="17060.08,13404.72 17758.49,13404.29 17758.06,13148.41 17063.91,13147.76 "/>
    <polygon class="fil3" points="17961.01,13635.75 18591.77,13643.4 18592.31,13360.87 17962.99,13354.28 "/>
    <polygon class="fil3" points="4335.79,13637.59 4959.06,13642.35 4961.86,13355.84 4338.23,13354.61 "/>
    <polygon class="fil3" points="17060.4,13046.99 17757.04,13050.53 17757.79,12792.81 17064.48,12794.17 "/>
    <polygon class="fil3" points="5171.54,13049.64 5864.37,13048.58 5865.7,12798.86 5169.73,12791.15 "/>
    <polygon class="fil4" points="15270.53,13403.49 15962.2,13402.28 15962.94,13147.61 15272.35,13150.55 "/>
    <polygon class="fil4" points="16167.43,13401.52 16863.24,13403.46 16860.11,13151.65 16164.93,13149.4 "/>
    <polygon class="fil4" points="6956.1,13401.18 7649.28,13398.36 7649.52,13149.03 6956,13145.86 "/>
    <polygon class="fil3" points="13480.01,13400.08 14172.45,13399.43 14176.82,13147.99 13477.97,13150.04 "/>
    <polygon class="fil4" points="7852.86,13393.92 8540.51,13395.52 8544.18,13143.71 7860.03,13143.82 "/>
    <polygon class="fil4" points="14374.3,13399.37 15065.44,13403.38 15066.17,13152.58 14377.19,13152.33 "/>
    <polygon class="fil3" points="5169.24,13405.06 5862.5,13399.51 5864.87,13155.27 5175.71,13153.53 "/>
    <polygon class="fil3" points="8745.93,13390.7 9414.93,13389.01 9414.93,13141.78 8746.55,13138.11 "/>
    <polygon class="fil4" points="6065.53,13400.18 6755.67,13400.7 6754.92,13155.94 6066.95,13151.27 "/>
    <polygon class="fil3" points="8748.26,13034.78 9414.93,13035.78 9414.93,12787.53 8752.34,12787.92 "/>
    <polygon class="fil4" points="17958.57,13828.6 17959.63,13955.09 18123.04,13957.34 18184.55,13956.71 18230.68,13956.61 18591.51,13961.65 18590.13,13732.19 18430.57,13732.31 17960.44,13734 "/>
    <polygon class="fil4" points="4338.53,13957.5 4960.23,13952.58 4960.07,13734.26 4776.44,13731.84 4761.07,13732.12 4653.43,13732.58 4607.31,13732.6 4530.42,13732.75 4335.36,13734.36 "/>
    <path class="fil2" d="M12805.59 10765.46c157.1,-56.94 306.9,-256.68 338.35,-469.13 36.98,-249.88 -99.93,-487.46 -233.87,-558.98 130.04,498.68 79.98,612.51 -104.48,1028.11z"/>
    <polygon class="fil4" points="15270.06,13690.96 15961.4,13690.65 15961.62,13491.01 15279.45,13495.31 "/>
    <polygon class="fil4" points="6955.88,13687.56 7646.09,13686.84 7648.01,13493.72 6958.58,13490.35 "/>
    <polygon class="fil4" points="16163.49,13691.95 16861.58,13690.7 16860.36,13497.1 16174.14,13496.56 "/>
    <polygon class="fil4" points="6064.81,13690.6 6758.73,13691.44 6755.91,13496.67 6071.88,13494.66 "/>
    <polygon class="fil4" points="5170.71,13692.91 5870.05,13692.13 5866.33,13495.92 5184.56,13500.4 "/>
    <polygon class="fil4" points="17058.82,13690.64 17755.01,13692.67 17752.51,13498.03 17068.25,13497.25 "/>
    <polygon class="fil4" points="14374.68,13685.55 15065.33,13691.18 15063.71,13494.66 14377.49,13494.04 "/>
    <path class="fil2" d="M10065.94 10764.22c-61.07,-159.49 -142.29,-269.28 -165.76,-474.79 -27.94,-244.74 14.48,-355.2 68.06,-562.3 -157.29,75.73 -264.12,344.95 -237.11,563.08 26.45,213.65 191.65,412.28 334.81,474.01z"/>
    <polygon class="fil4" points="7853.53,13682.32 8535.86,13682.39 8544.23,13490.12 7856.5,13492.08 "/>
    <path class="fil4" d="M13484.24 13686.18l694.46 0.58 -1.49 -186.29 -663.37 -2.98c-49.2,15.59 -33.44,34.12 -29.6,188.69z"/>
    <polygon class="fil4" points="8744.56,13674.35 8805,13677.47 9158.68,13676.85 9417.09,13673.75 9418.03,13487.88 9266.34,13481.69 8742.82,13487.23 "/>
    <polygon class="fil4" points="17062.6,13943.72 17749.81,13949.47 17753.06,13786.66 17064.98,13785.91 "/>
    <polygon class="fil4" points="16164.11,13940.34 16862.51,13943.09 16859.96,13787.25 16169.16,13785.96 "/>
    <polygon class="fil4" points="5170.76,13940.02 5860.59,13944.91 5867.34,13787.17 5173.04,13787.64 "/>
    <polygon class="fil4" points="15269.05,13936.04 15963.5,13939.98 15961.38,13781.65 15278.26,13786.43 "/>
    <polygon class="fil4" points="6064.42,13938.96 6756.79,13937.33 6757.08,13787.97 6071.35,13786.86 "/>
    <polygon class="fil4" points="7855.63,13928.76 8536.13,13929.24 8546.28,13777.5 7850.99,13780.19 "/>
    <polygon class="fil4" points="6956.58,13933.69 7646.25,13933.55 7649.38,13785 6960.07,13784.71 "/>
    <polygon class="fil4 str0" points="14375.8,13929.21 15064.14,13936.71 15064.56,13785.33 14377.22,13785.77 "/>
    <polygon class="fil4" points="13486.62,13926.01 14170.47,13932.97 14176.57,13781.26 13488.14,13787.51 "/>
    <polygon class="fil4" points="8742.05,13922.7 9418,13923.07 9416.22,13774.21 8751.26,13774.6 "/>
    <path class="fil3" d="M13019.22 13378.6l271.72 3.15 -0.68 -220.39 -356.57 -2.11c9.45,53.98 60.9,173.4 85.53,219.35z"/>
    <polygon class="fil3" points="9616.82,13372.36 9885.76,13372.76 9975.18,13154.14 9623.39,13151.97 "/>
    <path class="fil4" d="M13144.23 13668.12l147.29 3.82 6.71 -200.3 -236.5 -1.37c17.81,69.7 47.29,150.88 82.5,197.85z"/>
    <path class="fil5" d="M9618.01 13660.24l140.37 1.03c32.06,-54.43 69.93,-144.9 76.32,-196.93l-211.8 -0.63 -4.89 196.53z"/>
    <path class="fil4" d="M13279.52 13927.52l16.63 -67.27c1.22,-26.67 -1.98,-65.21 -2.51,-93.36l-111.55 -1.39c49.5,182.73 50.42,154.26 97.43,162.02z"/>
    <path class="fil6" d="M9635.35 13922.96c45.2,-31.69 62.81,-112.07 77.52,-165.59l-93.63 5.3c0.82,63.17 -9.24,116.72 16.11,160.29z"/>
   </g>
   <polygon class="fil0" points="5952.45,15156.95 11430,15017.05 16907.55,15156.95 11430,15254.75 "/>
   <polygon class="fil0" points="6773.78,16052.15 11430,15933.23 16086.22,16052.15 11430,16135.29 "/>
   <polygon class="fil0" points="7405.09,16948.09 11430,16845.29 15454.91,16948.09 11430,17019.95 "/>
   <polygon class="fil0" points="8692.47,17841.5 11430,17771.58 14167.53,17841.5 11430,17890.38 "/>
   <path class="fil4" d="M11430 5073.57c3541.32,0 6412.13,2826.48 6412.13,6313.11 0,263.29 -16.65,522.73 -48.45,777.57 6.63,-117.27 10.31,-235.32 10.31,-354.22 0,-3465.9 -2853.73,-6275.56 -6373.99,-6275.56 -3520.26,0 -6373.99,2809.66 -6373.99,6275.56 0,118.9 3.68,236.95 10.31,354.22 -31.8,-254.84 -48.45,-514.28 -48.45,-777.57 0,-3486.63 2870.81,-6313.11 6412.13,-6313.11z"/>
  </g>
 </g>
</svg>
