<?xml version="1.0" encoding="UTF-8"?>
<!DOCTYPE svg PUBLIC "-//W3C//DTD SVG 1.1//EN" "http://www.w3.org/Graphics/SVG/1.1/DTD/svg11.dtd">
<!-- Creator: CorelDRAW -->
<svg xmlns="http://www.w3.org/2000/svg" xml:space="preserve" width="228.6mm" height="228.6mm" version="1.1" style="shape-rendering:geometricPrecision; text-rendering:geometricPrecision; image-rendering:optimizeQuality; fill-rule:evenodd; clip-rule:evenodd"
viewBox="0 0 22860 22860"
 xmlns:xlink="http://www.w3.org/1999/xlink"
 xmlns:xodm="http://www.corel.com/coreldraw/odm/2003">
 <defs>
  <style type="text/css">
   <![CDATA[
    .fil0 {fill:black}
    .fil17 {fill:#00408A}
    .fil1 {fill:#004192}
    .fil4 {fill:#00419A}
    .fil10 {fill:#00439B}
    .fil8 {fill:#004AAA}
    .fil16 {fill:#01458C}
    .fil3 {fill:#0145A1}
    .fil20 {fill:#030202}
    .fil18 {fill:#040303}
    .fil24 {fill:#0A0E14}
    .fil21 {fill:#0C264B}
    .fil12 {fill:#0E3A11}
    .fil7 {fill:#144816}
    .fil19 {fill:#145213}
    .fil15 {fill:#1A6917}
    .fil23 {fill:#298519}
    .fil13 {fill:#2D8C1C}
    .fil2 {fill:#34991F}
    .fil11 {fill:#369C22}
    .fil6 {fill:#379D92}
    .fil9 {fill:#3A9C22}
    .fil26 {fill:#F4F4F3}
    .fil25 {fill:#F9FAF9}
    .fil22 {fill:#FBFBFB}
    .fil14 {fill:#FCFCFC}
    .fil5 {fill:#FDFDFD}
   ]]>
  </style>
 </defs>
 <g id="Layer_x0020_1">
  <metadata id="CorelCorpID_0Corel-Layer"/>
  <g id="_2527505819808">
   <path class="fil0" d="M13325.16 13843.12l97.37 -716.38c79.48,-30.24 369.92,-25.02 458.11,8.46 150.96,57.29 119.84,213.22 101.25,360.01 -50.06,394.55 -188.03,348.83 -656.73,347.91zm-4268.57 -426.61c-22.86,219.95 -48.93,395.95 -261.16,431.83 -269.2,45.51 -417.86,-29.53 -375.74,-305.71 34.08,-223.31 28.89,-389.75 262.11,-426.9 277.82,-44.24 403.09,28.12 374.79,300.78zm-814.59 167.88l94.72 254.71 -228.04 1.3c-49.88,-197.69 -51.61,-234.45 -132.86,-243.24 -43.46,53.66 -42.65,153.85 -59.47,242.29l-202.32 6.88 93.55 -725.45c121.68,-17.22 465.53,-20.92 533.93,47.45 53.56,53.51 73.56,247.86 -56.69,372.32l-42.82 43.74zm3777.49 -123.26c17.08,24.7 145.07,124.53 38.74,294.29 -78.39,125.17 -544.41,164.57 -570.09,-39.79 -17.71,-141.01 41.91,-196.36 141.36,-242.93 -49.14,-27.76 -67.38,-29.28 -81.46,-90.84 -81.63,-356.51 516.5,-313.58 571.5,-178.15 27.62,68.09 22.65,209.3 -100.05,257.42zm-5733.54 -151.02c-2.51,-205.21 246.59,-226.87 426.54,-190.47 94.41,19.09 147.82,65.87 140.13,178.65 -7.77,114.02 -62.91,126.65 -128.56,181.93 55.25,39.33 91.34,44.2 92.64,137.16 1.1,78.39 -30.69,139.35 -74.86,176.67 -128.27,108.48 -551.71,87.74 -513.29,-107.39 20.82,-105.51 181.36,-43.32 188.53,-39.22 33.79,19.29 -2.83,35.94 82.65,44.69 98.71,10.13 213.82,-143.44 -55.56,-140.33l10.79 -129.82 161.61 -30.91 8.72 -110.98c-199.11,-32.6 -51.48,70.17 -339.34,30.02zm-565.58 532.8c57.68,-186.76 214.14,-360.15 275.7,-548.99l-292.84 -2.72c-26.6,-248 99.06,-180.3 543.14,-172.37 17.71,203.2 -160.02,417.59 -269.84,648.06 -54.37,114.08 -114.27,78.91 -256.16,76.02zm1984.66 -560.67l-263.7 13.19 -15.13 126.23 221.89 5.11c63.64,201.58 -99.8,151.1 -242.53,157.59l-42.58 253.54 -202.39 8.61 93.98 -727.11 474.49 -2.9c6.13,86.68 -5.97,94.44 -24.03,165.74zm3786.99 1.48c-265.68,38 -267.09,-72.39 -284.44,139.6l227.93 4.33c22.19,214.78 -71.12,146.48 -250.97,157.87 -11.08,80.61 -14.15,186.66 -52.95,250.97 -66.22,10.02 -131.02,16.83 -193.35,-4.45l94.43 -713.74 478.47 -1.87 -19.12 167.29zm-1608.3 557.36l-199.22 3.31 41.07 -359.55 -137.62 232.62 -167.04 1.41 -78.18 -244.93 -53.02 364.28 -200.03 7.3 94.48 -724.5 217.49 -4.69c42.44,82.16 97.01,266.59 114.65,370.73 3.35,-2.96 8.18,-12.24 9.63,-9.35l223.52 -363.5 221.09 3 -86.82 723.87zm2815.97 -555.56c-279.16,21.1 -262.86,-50.66 -280.25,135.68l228.39 6.56 -10.55 144.99 -240.84 13.9 -37.86 251.74 -199.32 5.79c8.08,-135.15 53.59,-627.13 94.87,-713.74 97.96,-46.96 542.67,-13.72 688.76,-11.11l40.71 477.48c76.02,-125.45 123.58,-371.65 197.91,-476.88l192.86 -0.11c-16.47,81.56 -243.91,587.87 -292.98,718.5l-251.11 3.04 -92.04 -684.43 -38.55 128.59zm-1801.91 554.46l-219.47 1.84c-51.36,-77.83 -67.02,-146.2 -103.32,-220.31l-55.18 -76.84 -40.85 293.9 -206.76 5.82 90.06 -722.91 200.38 -4.06 -27.2 298.91c76.3,-49.71 113.66,-140.9 160.97,-216.64 62.34,-99.91 45.3,-75.11 266.7,-81.88 -33.16,102.16 -161.04,236.57 -201.4,332.32 -31.33,74.43 105.09,293.93 136.07,389.85zm-6987.68 -928.76l-1008.97 29.43c35.99,-70 651.74,-647.88 676.72,-666.26 79.3,40.11 194.98,184.75 266.35,254.88 117.61,115.61 120.47,74.08 65.9,381.95zm-953.4 -265.85l201.89 -761.08c64.18,33.86 276.95,225.1 299.56,275.8 -67.84,74.61 -437.97,454.2 -501.45,485.28zm1023.56 -231.67c-66.32,-47.73 -242.43,-208.49 -268.39,-275.24 88.12,-78.24 198.54,-220.69 300.57,-265.67 22.93,189.44 -15.42,348.75 -32.18,540.91zm-402.41 -380.68c-95.32,-82.83 -235.94,-189.8 -317.08,-295.1 79.73,-83.04 216.47,-203.98 317.08,-267.93 69.18,24.72 196.74,136.17 260.24,192.22 2.83,2.51 34.86,31.4 35.07,31.61 33.37,33.41 14.64,3.64 41.52,49.92l-336.83 289.28zm-347.32 -468.56l80.65 -360.05c55.96,28.23 124.46,99.45 167.19,147.43 -21.49,55.53 -50.13,64.45 -117.41,118.57 -30.27,24.34 -94.37,80.47 -130.43,94.05zm468.82 -213.57c34.92,-43.92 117.19,-124 165.63,-151.91l69.85 353.94c-57.44,-24.51 -213.75,-156.17 -235.48,-202.03zm-292.42 -299.51l370.31 -6.39 -179.32 187.15c-62.3,-21.87 -159.63,-124.56 -190.99,-180.76zm188.52 -336.02c88.9,92.28 145.38,101.17 210.68,227.89l-435.29 9.28c22.65,-97.3 150.99,-209.87 224.61,-237.17zm-184.57 -23.11c2.89,-53.06 8.04,-122.91 32.67,-156.81 38.34,34.19 32.66,29.74 48.68,77.82 -26.14,46.29 -38.17,51.51 -81.35,78.99zm320.67 -174.06c26.5,42.33 27.03,117.41 28.54,176.14 -47.34,-29.45 -59.97,-40 -93.06,-83.75 15.98,-44.02 36.37,-64.66 64.52,-92.39zm-61.38 -281.9c43.22,121.46 -5.01,181.5 -92.32,230.5 -41.52,-37.68 -93.17,-84.45 -84.88,-173.14 8.61,-91.62 80.47,-65.37 177.2,-57.36zm-75.53 -867.84c63.71,48.47 30.34,284.69 32.35,371.94 1.52,64.98 19.19,302.54 4.8,350.23 -10.9,36.06 -2.93,15.98 -20.36,37.57l-50.34 0.85c-32.07,-50.3 -17.95,-127.6 -16.19,-187.22l9.14 -488.17c6.35,-87.24 -9.25,-60.93 40.6,-85.2zm12792.14 2915.36c1.58,-4.94 4.27,-17.15 5.22,-14.61 9.63,26.21 124.6,-419.77 149.82,-579.68 12.21,-77.51 34.75,-123.61 49.36,-199.67l60.6 -20.43 25.05 -1.23 85.83 -30.41c3.04,-0.67 8.82,-0.85 13.05,-2.01l-8.57 -140.45 -98.42 6.46c-18.14,-29.03 -12.53,-19.65 -25.51,-53.66l-45.19 -9.73c-26.1,-476.47 116.56,-674.73 -48.33,-1058.3 -21.98,-51.12 -32.67,-83.57 -63.08,-121.15l-99.09 -107.56c-292.38,-284.09 -638.07,-356.16 -1076.15,-366.82 -476.29,-11.57 -966.15,-2.82 -1443.64,-1.79 -2640.82,5.75 -5302.41,-15.42 -7939.82,-0.78 -222.85,1.23 -526.09,-16.16 -738.57,9.14l-84.1 189.65c282.15,24.87 1713.51,9.7 2098.39,7.41 2450.99,-14.64 4931.22,-0.43 7385.92,-0.88 581.38,-0.11 1387.79,-95.92 1700.64,417.54 164.99,270.76 118.99,594.4 88.19,926.79 -114.62,1237.54 -274,1692.27 -1469.92,1693.61 -345.37,0.35 -709.22,10.13 -1052.55,-2.33l94.62 -945.34c-63.15,152.83 -113.24,312.6 -170.6,477.24l-125.8 378c-23.04,71.79 -10.83,80.65 -72.61,90.74l-1317.66 -2.4 -94.19 -997.69 -788.74 4.16c-67.66,147.29 -70.55,771.1 -123.65,992.33l-1121.96 3.42 -2.86 -118.46c-117.83,39.76 -188.42,87.7 -328.19,107.91 -129.08,18.7 -269.41,10.41 -401.64,11.05 -267.54,1.3 -575.31,15.13 -838.23,0.28 -261.76,-14.78 -460.45,-115.01 -558.13,-277.21 -164.68,-273.51 -7.13,-469.62 -37.61,-717.1l-542.29 -3.74 -118.35 980.02c-9.07,1.87 -14.89,0.32 -16.83,5.12 -11.36,27.9 -1538.89,12.59 -1564.71,12.63 -530.51,1.23 -1063.87,4.97 -1594.17,-0.15 -16.79,-122.73 54.33,-544.26 69.46,-698.95 32.1,-328.19 228.78,-1922.82 220.91,-2096.99l-204.36 -0.17 -123.86 1226.43c-91.09,-151.41 -309.39,-1509.18 -353.31,-1797.19 -23.07,-151.31 -19.05,-109.82 46.71,-194.98 134.94,-174.7 -47.77,-465.32 -307.94,-341.84 -133.7,63.43 -168.31,224.47 -68.19,365.83 72.56,102.48 6.38,323.35 -16.58,455.86 -173.94,1003.23 -353.04,1705.71 -568.02,2656.1l-154.34 651.19c-28.15,65.05 -79.49,82.44 -128.18,144.85l1990.01 -40.92 11.36 -59.13c78.88,36.27 132.43,86.15 194.77,132.29l59.93 50.52c2.51,2.4 6.92,6.84 10.09,10.51 -405.94,9.78 -2925.37,96.95 -3140.49,179.74 146.15,90.28 3162.96,74.9 3604.61,81.71l0.7 535.34 9104.52 2.15 7.19 -536.12c506.06,-29.45 1423.6,5.79 2019.44,-8.64 195.13,-4.76 1719.94,-21.27 1908.89,-56.9 95.49,-17.99 -56.31,15.62 31,-7.48l29.21 -10.06c-4.65,-2.25 -11.78,-9.8 -14.57,-5.46 -3.03,4.72 -19.93,-7.2 -29.31,-9.42 -281.62,-67.56 -3164.56,-186.09 -3468.62,-177.7 195.09,-211.63 248.96,-158.75 430.11,-179.63 181.19,-20.85 351.05,-65.65 494.84,-141.47 253.44,-133.59 527.54,-438.64 598.49,-669.39z"/>
   <path class="fil1" d="M5984.68 11546.96c-71.27,-173 -108.17,-182 -14.57,-337.64 75.98,-126.44 661.74,-1120.81 675.42,-1179.97l-750.39 1.37c-48.15,66.08 -108.3,180.87 -154.8,260.6 -94.97,162.81 -387.81,705.91 -453.28,773.82l115.04 -1033.18c-86.71,-7.45 -390.91,-20.01 -452.12,7.76 -118.39,53.76 12.95,115.89 -311.05,143.51l-278.44 2449.76c143.9,0.1 634.71,18.66 738.4,-9.6l123.01 -1020.44c1.2,-3.81 4.02,-9.7 5.12,-12.74l12.27 -24.87c29.99,121.71 350.52,983.86 403.26,1068.39l1481.1 -0.92 118.86 -975.57 769.83 -0.04 54.11 -539.04 -762.91 -21.1 46.49 -411.97 810.44 13.62c29.84,-68.69 97.93,-592.14 86.29,-668.73 -95.15,0.28 -1417.04,-14.89 -1504.99,7.87l-319.05 2497.24 -438.04 -988.13z"/>
   <path class="fil2" d="M8951.43 12155.47c-15.03,-58.46 29.71,-504.69 52.67,-563.67 29.67,-76.31 146.86,-51.05 247.44,-51.15 93.03,-0.11 207.79,-9.74 285.64,11.5 17.15,103.04 -45.01,541.41 -79.79,612.88l-505.96 -9.56zm145.91 -1154.79c-37.71,-78.66 17.07,-294.92 27.59,-399.13 21.06,-208.77 64.1,-164.43 277.7,-161.85 227.72,2.75 287.31,-56.45 257.74,175.5 -56.93,446.2 55.81,425.81 -460.23,410 -26.6,-0.84 -38.03,-0.81 -63.61,-7.05 -32.06,-7.83 -21.73,-5.15 -39.19,-17.47zm851.92 271.33c63.29,-44.98 131.77,-23.78 255.2,-108.73 217.31,-149.61 260.78,-541.41 253.16,-785.42 -14.93,-477.49 -569.07,-405.59 -987.85,-405.06 -439.1,0.53 -927.49,-44.49 -1064.16,331.18 -45.65,125.42 -94.75,489.73 -77.18,627.84 35.84,281.8 252.37,275.8 354.5,337.36 -232.2,33.87 -355.14,125.1 -431.87,307.98 -51.93,123.75 -104.39,459.14 -104.99,614.11 -2.08,528.82 539.23,453.18 987.99,453.82 478.58,0.67 944.6,59.34 1094.67,-365.59 49.15,-139.13 91.97,-484.36 79.38,-641.35 -18.06,-225.77 -144.32,-333.44 -358.85,-366.14z"/>
   <path class="fil1" d="M14892.34 12002.01c-17.78,-105.41 111.83,-1145.75 140.79,-1316.67 80.75,-19.97 210.08,-17.36 293.13,-2.79 229.09,40.29 124.56,327.62 85.23,688.45 -65.87,603.7 -21.24,648.15 -519.15,631.01zm-800.38 632.39c385.23,0.88 1251.9,49.99 1544,-101.11 370.66,-191.77 443.97,-599.97 496.29,-1115.55 51.43,-506.7 185.98,-1051.81 -240.88,-1283.87 -240.03,-130.49 -1167.8,-127.77 -1497.68,-100.43l-301.73 2600.96z"/>
   <path class="fil1" d="M13468.28 12629.74c88.76,-283.88 836.16,-2524.44 834.99,-2599.93l-769.02 1.23c-51.5,120.76 -81.21,292.95 -119.34,430.46 -65.66,236.85 -306.36,1197.86 -354.33,1281.96l-70.06 -1713.62 -763.87 4.09 233.25 2599.76 1008.38 -3.95z"/>
   <path class="fil1" d="M12114.39 10691.76c20.78,-142.91 89.47,-540.46 73.66,-661.81l-1528.19 -0.74 -300.25 2604.62 714.55 -8.89 117.96 -965.13 760.24 -4.09 56.06 -535.13 -759.67 -23.24 46.35 -407.6c166.37,-4.59 709.4,33.37 819.29,2.01z"/>
   <path class="fil0" d="M12926.52 14252.94c-53.62,-18.45 -5896.42,-40.11 -6052.91,-1.23 110.49,46.81 1889.68,262.64 2271.07,314.22 906.78,122.66 601.91,145.27 1533.21,7.76l2248.63 -320.75z"/>
   <path class="fil3" d="M18824.9 11239.48c48.26,-4.13 35.2,142.98 39.47,184.57l-12.8 210.93c-42.34,15.03 -71.02,37.22 -124.71,23.64 -129.75,-32.81 -90.45,-329.64 -76.55,-427.92 69.18,-17.18 112.46,-44.38 174.59,8.78zm-202.64 1606.3c30.34,114.06 241.23,154.2 249.17,-66.14 5.36,-149.51 1.73,-319.83 0.81,-471 -2.65,-428.73 17.14,-2730.21 -9.42,-2812.98 -35.88,-111.93 -241.58,-140.61 -246.84,58.88 -4.06,153.39 -0.56,316.87 0.07,471.21 1.27,306.91 -12.52,2749.72 6.21,2820.03z"/>
   <path class="fil4" d="M17974.88 11419.08l-29.74 30.73c-189.97,221.22 -206.73,-105.91 -165.91,-229.63 85.37,-30.51 130.7,-3.17 181.36,70.21l16.05 25.33c-19.72,-147.85 -1.52,-1145.58 3.28,-1425.12 3.39,-197.49 -115.74,-239.08 -231.1,-132.96 -38.31,207.04 -7.87,778.22 -7.83,1023.48l0 1527.91c-3.92,290.9 202.95,216.29 229.9,125.66 29.7,-99.87 -3.1,-837.74 3.99,-1015.61z"/>
   <path class="fil2" d="M17412.41 11513.73c81.31,-144.89 -37.75,-560.67 65.76,-645.2 85.51,4.13 122.09,-17.81 158.99,58.21l25.9 1.94c22.47,-315.98 6.56,-682.3 7.23,-1003.65 0.42,-218.62 37.96,-836.82 -35.63,-978.61 -305.54,-98.1 -229.59,215.98 -229.94,458.23 -0.92,615.7 34.32,1585.17 7.69,2109.08z"/>
   <path class="fil5" d="M12738.24 13156.93l92.04 684.43 251.11 -3.04c49.07,-130.63 276.51,-636.94 292.98,-718.5l-192.86 0.11c-74.33,105.23 -121.89,351.43 -197.91,476.88l-40.71 -477.48c-146.09,-2.61 -590.8,-35.85 -688.76,11.11 -41.28,86.61 -86.79,578.59 -94.87,713.74l199.32 -5.79 37.86 -251.74 240.84 -13.9 10.55 -144.99 -228.39 -6.56c17.39,-186.34 1.09,-114.58 280.25,-135.68l38.55 -128.59z"/>
   <path class="fil6" d="M17313.88 11684.02c-196.61,1.23 -200.94,-156.04 -202.99,-331.65 -2.15,-182.1 -17.25,-363.19 199.32,-297.96l5.71 -1147.41c-13.61,-159.24 -240.63,-230.61 -237.45,67.63 5.5,521.02 17.71,1185.62 6.14,1683.39 -2.54,108.97 -32.28,748.27 20.74,820.56 34.75,47.37 136.14,83.29 190.64,-1.73 41.24,-69.36 24.1,-665.94 17.89,-792.83z"/>
   <path class="fil5" d="M9970.54 13117.21l-221.09 -3 -223.52 363.5c-1.45,-2.89 -6.28,6.39 -9.63,9.35 -17.64,-104.14 -72.21,-288.57 -114.65,-370.73l-217.49 4.69 -94.48 724.5 200.03 -7.3 53.02 -364.28 78.18 244.93 167.04 -1.41 137.62 -232.62 -41.07 359.55 199.22 -3.31 86.82 -723.87z"/>
   <path class="fil7" d="M16767.14 11295.32l8.57 140.45c-4.23,1.16 -10.01,1.34 -13.05,2.01l-85.83 30.41 95.22 1.44c13.4,151.56 7.37,333.1 5.99,487.19 -2.85,319.05 194.98,173.18 209.38,148.66 34.08,-58.07 20.63,-1200.22 21.8,-1425.08 0.56,-111.62 18.59,-365.16 -173.32,-272.63 -126.15,60.78 -19.23,598.45 -68.76,887.55z"/>
   <path class="fil5" d="M3910.1 12911.22c54.57,-307.87 51.71,-266.34 -65.9,-381.95 -71.37,-70.13 -187.05,-214.77 -266.35,-254.88 -24.98,18.38 -640.73,596.26 -676.72,666.26l1008.97 -29.43z"/>
   <path class="fil2" d="M17669.58 11737.85l-48.47 -68.26c-3.31,-1.63 -57.75,3.74 -76.23,3.77 -123.48,0.07 -58.28,-17.07 -128.87,-42.72l-27.17 6.39c2.26,3.63 4.17,8.99 5.01,11.78 29.35,96.13 11.36,1061.51 11.22,1196.97 -0.18,130.81 -22.61,277.71 98.43,308.33 226.73,57.4 169.26,-358.1 167.85,-627.24 -1.41,-262.78 -4.84,-526.52 -1.77,-789.02z"/>
   <path class="fil5" d="M11869.46 13670.86c-124.43,61.07 -207.65,28.65 -134.09,-124.35l140.86 5.71 -6.77 118.64zm35.88 -391.09c4.41,43.89 11.11,90.81 -25.58,115.36 -17.57,11.78 -37.82,14.22 -58.99,12.7 -92.42,-6.67 -33.51,-7.76 -56.23,-23.67 -28.57,-110.74 46.25,-127.64 140.8,-104.39zm114.15 181.36c122.7,-48.12 127.67,-189.33 100.05,-257.42 -55,-135.43 -653.13,-178.36 -571.5,178.15 14.08,61.56 32.32,63.08 81.46,90.84 -99.45,46.57 -159.07,101.92 -141.36,242.93 25.68,204.36 491.7,164.96 570.09,39.79 106.33,-169.76 -21.66,-269.59 -38.74,-294.29z"/>
   <path class="fil5" d="M7998.08 13285.94c164.15,-23.7 183.31,16.69 133.81,154.03l-152.01 -0.89 18.2 -153.14zm286.74 254.71c130.25,-124.46 110.25,-318.81 56.69,-372.32 -68.4,-68.37 -412.25,-64.67 -533.93,-47.45l-93.55 725.45 202.32 -6.88c16.82,-88.44 16.01,-188.63 59.47,-242.29 81.25,8.79 82.98,45.55 132.86,243.24l228.04 -1.3 -94.72 -254.71 42.82 -43.74z"/>
   <path class="fil5" d="M13558.8 13672.73c39.16,-396.66 34.4,-423.19 208.14,-373.06 23.11,66.21 10.59,179.42 -6.7,261.97 -26.88,128.23 -84.14,115.18 -201.44,111.09zm-233.64 170.39c468.7,0.92 606.67,46.64 656.73,-347.91 18.59,-146.79 49.71,-302.72 -101.25,-360.01 -88.19,-33.48 -378.63,-38.7 -458.11,-8.46l-97.37 716.38z"/>
   <path class="fil8" d="M19529.64 11989.73c18.34,72.64 224.22,172.48 225.67,-82.86l-5.96 -1335.62c-27.38,-90.17 -221.02,-125.27 -225.78,74.43l6.07 1344.05z"/>
   <path class="fil5" d="M8836.95 13293.25c19.55,81.35 2.51,190 -15.45,278.97 -36.44,180.41 -161.43,111.69 -175.22,97.76 -41.35,-41.77 -1.69,-220.17 7.62,-277.14 19.72,-120.69 71.08,-132.54 183.05,-99.59zm219.64 123.26c28.3,-272.66 -96.97,-345.02 -374.79,-300.78 -233.22,37.15 -228.03,203.59 -262.11,426.9 -42.12,276.18 106.54,351.22 375.74,305.71 212.23,-35.88 238.3,-211.88 261.16,-431.83z"/>
   <path class="fil9" d="M18356.27 11136.72c83.36,-42.55 91.79,-41.95 173.14,-6.78 23.63,112.5 16.01,332.92 -9.53,439.35 -55.56,16.37 -85.47,19.62 -144.39,5.79 -37.99,-82.48 -35.35,-325.83 -19.22,-438.36zm-29.25 886.56c0.11,98.78 36.97,174.84 146.97,141.75 86.75,-26.07 75.77,-102.55 74.12,-208.56l-1.17 -1041.09c-0.46,-97.43 20.29,-524.3 -19.65,-580.74 -32.98,-46.64 -122.17,-61.49 -169.08,-15.13 -65.55,64.8 -20.4,898.94 -19.69,998.75l-11.5 705.02z"/>
   <path class="fil5" d="M10897.78 13839.98c-30.98,-95.92 -167.4,-315.42 -136.07,-389.85 40.36,-95.75 168.24,-230.16 201.4,-332.32 -221.4,6.77 -204.36,-18.03 -266.7,81.88 -47.31,75.74 -84.67,166.93 -160.97,216.64l27.2 -298.91 -200.38 4.06 -90.06 722.91 206.76 -5.82 40.85 -293.9 55.18 76.84c36.3,74.11 51.96,142.48 103.32,220.31l219.47 -1.84z"/>
   <path class="fil0" d="M4685.85 8296.75c75.85,192.26 261.06,342.41 250.23,806.1 -8.29,355.1 -134.69,562.89 -286.56,788.6 25.68,62.23 51.4,72.35 86.01,116.2 105.69,-44.98 195.82,-247.05 249.94,-370.45 204.93,-467.4 134.97,-1074.63 -182.21,-1441.8 -56.02,19.58 -79.31,61.56 -117.41,101.35z"/>
   <path class="fil0" d="M2564.26 9905.8c-58.77,-114.16 -133.86,-198.86 -195.52,-349.63 -272.79,-667.28 101.4,-1101.41 155.67,-1261.22l-104.8 -102.66 -77.64 94.02c-72.98,110.38 -100.23,174.13 -146.18,307.02 -160.29,463.37 -59.72,1086.2 257.39,1415.17 38.88,-20.25 85.78,-66.75 111.08,-102.7z"/>
   <path class="fil10" d="M14593.93 13899.07c362.76,-6.6 739.45,-33.76 1103.8,-48.51 93.91,-3.77 1000.69,-15.55 1081.02,-81.52 -14.04,-9.1 -11.93,-9.67 -37.89,-18.06 -117.05,-37.96 -2095.85,-49.78 -2151.06,-48.05l4.13 196.14z"/>
   <path class="fil11" d="M5075.5 13701.06c-354.51,2.93 -707.99,9.17 -1061.23,13.26l-788.99 23.64c-174.02,5.68 -192.03,-14.92 -216.56,48.68 136.88,52.11 1789.21,103.54 2072.99,109.01l-6.21 -194.59z"/>
   <path class="fil5" d="M6285.95 13310.11c287.86,40.15 140.23,-62.62 339.34,-30.02l-8.72 110.98 -161.61 30.91 -10.79 129.82c269.38,-3.11 154.27,150.46 55.56,140.33 -85.48,-8.75 -48.86,-25.4 -82.65,-44.69 -7.17,-4.1 -167.71,-66.29 -188.53,39.22 -38.42,195.13 385.02,215.87 513.29,107.39 44.17,-37.32 75.96,-98.28 74.86,-176.67 -1.3,-92.96 -37.39,-97.83 -92.64,-137.16 65.65,-55.28 120.79,-67.91 128.56,-181.93 7.69,-112.78 -45.72,-159.56 -140.13,-178.65 -179.95,-36.4 -429.05,-14.74 -426.54,190.47z"/>
   <path class="fil12" d="M16386.78 12283.81c78.46,206.55 -141.4,715.68 224.79,617.25 87.66,-168.41 11.5,-1134.28 40.21,-1431.64l-60.6 20.43c-14.61,76.06 -37.15,122.16 -49.36,199.67 -25.22,159.91 -140.19,605.89 -149.82,579.68 -0.95,-2.54 -3.64,9.67 -5.22,14.61z"/>
   <path class="fil13" d="M18048.47 11309.86c36.05,45.75 26.42,76.23 -9,109.25l13.12 449.73c274.68,198.29 203.77,-242.4 204.97,-550.58 0.56,-145.77 -0.6,-291.54 1.59,-437.27 1.16,-77.3 8.22,-134.55 -45.37,-165.7 -259.61,-150.85 -166.8,468.2 -165.31,594.57z"/>
   <path class="fil5" d="M11511.14 13116.43l-478.47 1.87 -94.43 713.74c62.33,21.28 127.13,14.47 193.35,4.45 38.8,-64.31 41.87,-170.36 52.95,-250.97 179.85,-11.39 273.16,56.91 250.97,-157.87l-227.93 -4.33c17.35,-211.99 18.76,-101.6 284.44,-139.6l19.12 -167.29z"/>
   <path class="fil14" d="M7705.03 13282.24c18.06,-71.3 30.16,-79.06 24.03,-165.74l-474.49 2.9 -93.98 727.11 202.39 -8.61 42.58 -253.54c142.73,-6.49 306.17,43.99 242.53,-157.59l-221.89 -5.11 15.13 -126.23 263.7 -13.19z"/>
   <path class="fil5" d="M5720.37 13842.91c141.89,2.89 201.79,38.06 256.16,-76.02 109.82,-230.47 287.55,-444.86 269.84,-648.06 -444.08,-7.93 -569.74,-75.63 -543.14,172.37l292.84 2.72c-61.56,188.84 -218.02,362.23 -275.7,548.99z"/>
   <path class="fil15" d="M19231.82 11349.48c0.15,0.14 49.64,7.09 2.54,92.57 24.24,139.59 -18.87,280.88 33.31,383.82 143.89,49.03 186.26,12.98 187.6,-137.27 1.03,-117.3 2.37,-236.36 2.16,-353.55 -0.71,-361.53 48.47,-559.97 -189.23,-489.27 -61.11,123.51 -4.41,344.7 -36.38,503.7z"/>
   <path class="fil0" d="M4395.34 8579.04c143.41,251.89 255.69,455.86 111.27,814.28 -39.62,98.29 -94.16,148.06 -124.64,229.56l83.93 102.3c297.99,-132.36 373.62,-1012.72 35.2,-1258.89l-105.76 112.75z"/>
   <path class="fil0" d="M2480.12 9085.7c0.53,235.48 105.82,562.4 263.49,642.2 34.4,-47.66 49.89,-44.66 82.89,-105.02 -86.29,-183.31 -181.23,-240.63 -186.63,-521.73 -4.82,-250.12 84.41,-363.64 175.77,-523.13l-107.72 -111.87c-141.04,135.58 -228.39,361.07 -227.8,619.55z"/>
   <path class="fil16" d="M18950.03 11280.54c116.06,-66.21 151.87,-15.48 223.87,55.39 -45.02,-338.14 79.69,-921.74 -88.62,-960.16 -197.31,-45.08 -141.04,254.53 -140.58,388.55 0.56,172.37 2.86,344.07 5.33,516.22z"/>
   <path class="fil5" d="M3914.68 11743.74c-26.88,-46.28 -8.15,-16.51 -41.52,-49.92 -0.21,-0.21 -32.24,-29.1 -35.07,-31.61 -63.5,-56.05 -191.06,-167.5 -260.24,-192.22 -100.61,63.95 -237.35,184.89 -317.08,267.93 81.14,105.3 221.76,212.27 317.08,295.1l336.83 -289.28z"/>
   <path class="fil17" d="M18951.01 11529.15c-10.79,127.14 -31.92,671.76 16.44,747 50.8,60.15 138.57,59.73 181.15,-7.51 34.51,-54.51 19.02,-175.08 19.12,-245.36 0.29,-185.1 -6.52,-386.92 0.25,-569.35l-37.22 41.77c-76.06,80.47 -98.53,48.09 -179.74,33.45z"/>
   <path class="fil12" d="M16387.52 9951.38l99.09 107.56c30.41,37.58 41.1,70.03 63.08,121.15 164.89,383.57 22.23,581.83 48.33,1058.3l45.19 9.73c-38.06,-294.21 3.04,-832.34 3.85,-1155.24 0.35,-144.43 49.6,-464.39 -67.81,-515.72 -246.02,-107.6 -160.62,297.6 -191.73,374.22z"/>
   <path class="fil5" d="M2956.7 12645.37c63.48,-31.08 433.61,-410.67 501.45,-485.28 -22.61,-50.7 -235.38,-241.94 -299.56,-275.8l-201.89 761.08z"/>
   <path class="fil18" d="M17313.88 11684.02l74.96 -46.99 27.17 -6.39 4.94 -51.86c9.56,-77.08 2.39,-33.09 -13.9,-47.94l-84.56 -6.24c-18.14,-133.6 25.99,-368.13 -12.28,-470.19 -216.57,-65.23 -201.47,115.86 -199.32,297.96 2.05,175.61 6.38,332.88 202.99,331.65z"/>
   <path class="fil0" d="M20000.63 11707.72c44.31,-89.11 35.49,-574.67 13.44,-611.33 -25.82,-43.04 -103.5,-55.63 -154.76,-15.48 -53.62,42.05 -28.82,321.8 -28.33,405.27 1.03,164.43 -31.29,272.13 169.65,221.54z"/>
   <path class="fil0" d="M2990.33 9451.81c51.15,-34.32 69.62,-58.42 111.02,-101.38 -134.08,-312.74 -134.74,-224.05 0.27,-516.51 -32.75,-33.4 -59.7,-51.43 -87.17,-103.43 -179.2,88.19 -266.98,466.37 -24.12,721.32z"/>
   <path class="fil0" d="M4111.11 8833.92c166.4,312.07 79.13,301.7 1.34,526.74 52.84,29.38 67.77,55.56 103.29,90.48 80.89,-65.79 147.57,-195.75 152.23,-348.4 6.2,-203.34 -70.1,-251.14 -130.14,-374.83 -65.83,18.84 -95.61,55.57 -126.72,106.01z"/>
   <path class="fil19" d="M17412.41 11513.73l-5.36 17.11c16.29,14.85 23.46,-29.14 13.9,47.94 38.27,-42.83 20.17,-64.24 39.01,-113.2l178.54 -0.67c2.16,25.54 3.5,64.45 7.87,89.14 10.76,60.96 -2.93,28.47 22.4,65.87l-5.71 -691.24 -25.9 -1.94 3.39 176.99c-168.2,3.6 -226.7,-57.08 -162.38,-235.2 -103.51,84.53 15.55,500.31 -65.76,645.2z"/>
   <path class="fil5" d="M3980.26 12413.7c16.76,-192.16 55.11,-351.47 32.18,-540.91 -102.03,44.98 -212.45,187.43 -300.57,265.67 25.96,66.75 202.07,227.51 268.39,275.24z"/>
   <path class="fil20" d="M20424.42 11475.1c51.62,12.7 944.36,33.62 732.97,-89.5 -35.77,-20.85 -363.92,-18.77 -436.14,-24.73 -134.48,-11.11 -349.92,-67.77 -296.83,114.23z"/>
   <path class="fil0" d="M18356.27 11136.72c-16.13,112.53 -18.77,355.88 19.22,438.36 58.92,13.83 88.83,10.58 144.39,-5.79 25.54,-106.43 33.16,-326.85 9.53,-439.35 -81.35,-35.17 -89.78,-35.77 -173.14,6.78z"/>
   <path class="fil0" d="M20294.32 11602.88c26.14,-108.62 21.31,-294.54 -11.78,-386.79 -115.96,-22.19 -157.98,-27.48 -162.74,100.37 -3.35,90.03 -10.16,196.39 14.96,282.11 56.73,38.53 106.15,35 159.56,4.31z"/>
   <path class="fil0" d="M8836.95 13293.25c-111.97,-32.95 -163.33,-21.1 -183.05,99.59 -9.31,56.97 -48.97,235.37 -7.62,277.14 13.79,13.93 138.78,82.65 175.22,-97.76 17.96,-88.97 35,-197.62 15.45,-278.97z"/>
   <path class="fil0" d="M13558.8 13672.73c117.3,4.09 174.56,17.14 201.44,-111.09 17.29,-82.55 29.81,-195.76 6.7,-261.97 -173.74,-50.13 -168.98,-23.6 -208.14,373.06z"/>
   <path class="fil0" d="M18950.03 11280.54l0.98 248.61c81.21,14.64 103.68,47.02 179.74,-33.45l37.22 -41.77 66.39 -11.88c47.1,-85.48 -2.39,-92.43 -2.54,-92.57l-57.92 -13.55c-72,-70.87 -107.81,-121.6 -223.87,-55.39z"/>
   <path class="fil0" d="M17974.88 11419.08l64.59 0.03c35.42,-33.02 45.05,-63.5 9,-109.25l-71.83 5.86 -16.05 -25.33c-50.66,-73.38 -95.99,-100.72 -181.36,-70.21 -40.82,123.72 -24.06,450.85 165.91,229.63l29.74 -30.73z"/>
   <path class="fil21" d="M18864.37 11424.05l-61.52 16.48c-42.76,-23.57 -58.56,-28.96 -106.79,-49.74l6.92 -157.34 121.92 6.03c-62.13,-53.16 -105.41,-25.96 -174.59,-8.78 -13.9,98.28 -53.2,395.11 76.55,427.92 53.69,13.58 82.37,-8.61 124.71,-23.64l12.8 -210.93z"/>
   <path class="fil22" d="M3594.64 9368.45c-49.85,24.27 -34.25,-2.04 -40.6,85.2l-9.14 488.17c-1.76,59.62 -15.88,136.92 16.19,187.22l50.34 -0.85c17.43,-21.59 9.46,-1.51 20.36,-37.57 14.39,-47.69 -3.28,-285.25 -4.8,-350.23 -2.01,-87.25 31.36,-323.47 -32.35,-371.94z"/>
   <path class="fil5" d="M3595.45 10715.36c-73.62,27.3 -201.96,139.87 -224.61,237.17l435.29 -9.28c-65.3,-126.72 -121.78,-135.61 -210.68,-227.89z"/>
   <path class="fil23" d="M17420.95 11578.78l-4.94 51.86c70.59,25.65 5.39,42.79 128.87,42.72 18.48,-0.03 72.92,-5.4 76.23,-3.77l48.47 68.26 -0.81 -117.93c-25.33,-37.4 -11.64,-4.91 -22.4,-65.87 -4.37,-24.69 -5.71,-63.6 -7.87,-89.14l-178.54 0.67c-18.84,48.96 -0.74,70.37 -39.01,113.2z"/>
   <path class="fil14" d="M3230.53 11564.46c36.06,-13.58 100.16,-69.71 130.43,-94.05 67.28,-54.12 95.92,-63.04 117.41,-118.57 -42.73,-47.98 -111.23,-119.2 -167.19,-147.43l-80.65 360.05z"/>
   <path class="fil14" d="M3699.35 11350.89c21.73,45.86 178.04,177.52 235.48,202.03l-69.85 -353.94c-48.44,27.91 -130.71,107.99 -165.63,151.91z"/>
   <path class="fil20" d="M17637.16 10926.74c-36.9,-76.02 -73.48,-54.08 -158.99,-58.21 -64.32,178.12 -5.82,238.8 162.38,235.2l-3.39 -176.99z"/>
   <path class="fil5" d="M3406.93 11051.38c31.36,56.2 128.69,158.89 190.99,180.76l179.32 -187.15 -370.31 6.39z"/>
   <path class="fil5" d="M3670.17 10236.29c-96.73,-8.01 -168.59,-34.26 -177.2,57.36 -8.29,88.69 43.36,135.46 84.88,173.14 87.31,-49 135.54,-109.04 92.32,-230.5z"/>
   <path class="fil24" d="M18864.37 11424.05c-4.27,-41.59 8.79,-188.7 -39.47,-184.57l-121.92 -6.03 -6.92 157.34c48.23,20.78 64.03,26.17 106.79,49.74l61.52 -16.48z"/>
   <path class="fil0" d="M7979.88 13439.08l152.01 0.89c49.5,-137.34 30.34,-177.73 -133.81,-154.03l-18.2 153.14z"/>
   <path class="fil20" d="M11869.46 13670.86l6.77 -118.64 -140.86 -5.71c-73.56,153 9.66,185.42 134.09,124.35z"/>
   <path class="fil18" d="M11764.54 13384.16c22.72,15.91 -36.19,17 56.23,23.67 21.17,1.52 41.42,-0.92 58.99,-12.7 36.69,-24.55 29.99,-71.47 25.58,-115.36 -94.55,-23.25 -169.37,-6.35 -140.8,104.39z"/>
   <path class="fil25" d="M3731.55 10518.19c-28.15,27.73 -48.54,48.37 -64.52,92.39 33.09,43.75 45.72,54.3 93.06,83.75 -1.51,-58.73 -2.04,-133.81 -28.54,-176.14z"/>
   <path class="fil26" d="M3410.88 10692.25c43.18,-27.48 55.21,-32.7 81.35,-78.99 -16.02,-48.08 -10.34,-43.63 -48.68,-77.82 -24.63,33.9 -29.78,103.75 -32.67,156.81z"/>
  </g>
 </g>
</svg>
